STARTFONT 2.1
FONT -Monotype-Bookman Old Style-Regular-R-Normal--50-360-100-100-P-277-iso8859-2
SIZE 36 100 100
FONTBOUNDINGBOX 75 58 -11 -12

STARTPROPERTIES 24
FOUNDRY "Monotype"
FAMILY_NAME "Bookman Old Style"
WEIGHT_NAME "Regular"
SLANT "R"
SETWIDTH_NAME "Normal"
ADD_STYLE_NAME ""
PIXEL_SIZE 50
POINT_SIZE 360
RESOLUTION_X 100
RESOLUTION_Y 100
SPACING "P"
AVERAGE_WIDTH 277
CHARSET_REGISTRY "iso8859"
CHARSET_ENCODING "2"
FACE_NAME "Bookman Old Style ISO Latin2"
_DEC_DEVICE_FONTNAMES "PS=bookmanoldstyle-lat2"
COPYRIGHT "Copyright (c) 1993 Monotype Typography Ltd."
CAP_HEIGHT 41
X_HEIGHT 28
WEIGHT 10
QUAD_WIDTH 29
DEFAULT_CHAR 160
FONT_DESCENT 14
FONT_ASCENT 47
ENDPROPERTIES

CHARS 191

STARTCHAR space
ENCODING 32
SWIDTH 320 0
DWIDTH 16 0
BBX 0 0 0 0
BITMAP
ENDCHAR

STARTCHAR exclam
ENCODING 33
SWIDTH 300 0
DWIDTH 15 0
BBX 10 35 3 -1
BITMAP
1E00
3F00
3F00
3F00
3F00
3F00
3F00
3F00
3F00
1E00
1E00
1E00
1E00
1E00
1E00
1E00
1E00
1E00
1E00
1E00
1C00
0C00
0C00
0C00
0C00
0C00
0000
0000
0000
1E00
3F00
3F00
3F00
3F00
1E00
ENDCHAR

STARTCHAR quotedbl
ENCODING 34
SWIDTH 380 0
DWIDTH 19 0
BBX 14 13 2 22
BITMAP
1010
3838
7878
7878
7878
7878
3030
3030
3030
3030
3030
3030
2020
ENDCHAR

STARTCHAR numbersign
ENCODING 35
SWIDTH 600 0
DWIDTH 30 0
BBX 28 33 1 0
BITMAP
00380E00
00380E00
00380E00
00381C00
00381C00
00381C00
00301C00
00701C00
00701C00
00701800
1FFFFFC0
1FFFFFC0
1FFFFFC0
00E03800
00E03800
00E03800
00E03000
00E07000
00E07000
3FFFFF80
3FFFFF80
3FFFFF80
01C06000
01C0E000
01C0E000
01C0E000
0380E000
0380E000
0380E000
0380C000
0381C000
0381C000
0381C000
ENDCHAR

STARTCHAR dollar
ENCODING 36
SWIDTH 620 0
DWIDTH 31 0
BBX 29 46 1 -6
BITMAP
00060000
00060000
00060000
00060000
00060000
00060000
007F8000
03FFE700
07C7F700
0F063F00
1E061F80
1C060F80
3C060780
3C060380
3C0603C0
3C0601C0
3E0600C0
1F060000
1FC60000
0FFE0000
07FF0000
01FFE000
007FF800
000FFE00
0007FF00
00063F80
00060FC0
700607E0
700603E0
780601E0
380601E0
3C0601E0
3C0601E0
3E0603E0
3F0603C0
1F8607C0
1DE60F80
1CFE7F00
183FFC00
000FE000
00060000
00060000
00060000
00060000
00060000
00060000
ENDCHAR

STARTCHAR percent
ENCODING 37
SWIDTH 900 0
DWIDTH 45 0
BBX 45 36 0 -1
BITMAP
01F00000E000
07FC0001C000
0E0E0001C000
1E0700038000
1C0700070000
3C0780070000
3803800E0000
3803801C0000
3803801C0000
380380380000
380380300000
380380700000
380380E00000
3C0780E00000
1C0701C00000
1E0F03800000
0F1E03800000
07FC07007C00
01F00E03FF00
00000E078780
00001C0F03C0
0000180E01C0
0000381E01E0
0000701E01E0
0000701C00E0
0000E01C00E0
0001C01C00E0
0001C01C00E0
0003801C00E0
0003001E01E0
0007001E01E0
000E000E01C0
000C000F0380
001C00078780
00380003FE00
003000007800
ENDCHAR

STARTCHAR ampersand
ENCODING 38
SWIDTH 800 0
DWIDTH 40 0
BBX 40 36 1 -1
BITMAP
001FC00000
007FF00000
00F8F80000
01E03C0000
01C01C0000
01C01E0000
03C01E0000
03C01E0000
03C01E0000
01C01C0000
01E03C0000
00F0780000
007FF00000
001FC0FFE0
007F80FFE0
01F1E00F00
03C0F00E00
0780780E00
0F003C0C00
1E003E0C00
1E001F1C00
3E001F1C00
3C000F9800
3C000FB860
3C0007F8F0
3C0007F0F8
3E0007F0FC
3E0003E07C
3E0003E03C
1F0001F01C
1F8007F01C
0FC00FF81C
07F03E7C38
03FFFC3FF0
00FFF01FE0
001F800780
ENDCHAR

STARTCHAR quoteright
ENCODING 39
SWIDTH 220 0
DWIDTH 11 0
BBX 10 14 0 22
BITMAP
0C00
3F00
3F00
3F80
3F80
1F80
0380
0300
0700
0600
0E00
1C00
3800
3000
ENDCHAR

STARTCHAR parenleft
ENCODING 40
SWIDTH 300 0
DWIDTH 15 0
BBX 12 46 3 -11
BITMAP
00C0
01C0
0380
0780
0700
0F00
0E00
1E00
1E00
1E00
1E00
3C00
3C00
3C00
3C00
3C00
3C00
7C00
7C00
7C00
7C00
7C00
7C00
7C00
7C00
7C00
7C00
7C00
3C00
3C00
3C00
3C00
3C00
3C00
3C00
1E00
1E00
1E00
0E00
0E00
0F00
0700
0380
0380
01C0
00C0
ENDCHAR

STARTCHAR parenright
ENCODING 41
SWIDTH 300 0
DWIDTH 15 0
BBX 12 46 0 -11
BITMAP
3000
3800
1C00
0E00
0E00
0F00
0700
0780
0780
0780
03C0
03C0
03C0
03C0
03C0
03C0
03E0
03E0
03E0
03E0
03E0
03E0
03E0
03E0
03E0
03E0
03E0
03E0
03E0
03E0
03C0
03C0
03C0
03C0
03C0
03C0
0780
0780
0780
0700
0F00
0E00
1E00
1C00
3800
3000
ENDCHAR

STARTCHAR asterisk
ENCODING 42
SWIDTH 440 0
DWIDTH 22 0
BBX 20 18 1 17
BITMAP
006000
00F000
00F000
00F000
006000
006080
7C63E0
7E67E0
3FFFC0
00F000
00F000
009800
039C00
079E00
0F0F00
0F0F00
0E0700
040000
ENDCHAR

STARTCHAR plus
ENCODING 43
SWIDTH 600 0
DWIDTH 30 0
BBX 27 23 1 6
BITMAP
000E0000
000E0000
000E0000
000E0000
000E0000
000E0000
000E0000
000E0000
000E0000
000E0000
3FFFFF80
3FFFFF80
3FFFFF80
000E0000
000E0000
000E0000
000E0000
000E0000
000E0000
000E0000
000E0000
000E0000
000E0000
ENDCHAR

STARTCHAR comma
ENCODING 44
SWIDTH 320 0
DWIDTH 16 0
BBX 10 15 3 -9
BITMAP
0C00
3F00
3F00
3F80
3F80
1F80
0380
0300
0700
0600
0E00
1C00
3800
3000
2000
ENDCHAR

STARTCHAR minus
ENCODING 45
SWIDTH 600 0
DWIDTH 30 0
BBX 26 3 2 16
BITMAP
7FFFFF80
7FFFFF80
7FFFFF80
ENDCHAR

STARTCHAR period
ENCODING 46
SWIDTH 320 0
DWIDTH 16 0
BBX 10 6 3 0
BITMAP
1E00
3F00
3F00
3F00
3F00
1E00
ENDCHAR

STARTCHAR slash
ENCODING 47
SWIDTH 600 0
DWIDTH 30 0
BBX 23 47 3 -11
BITMAP
000038
000078
000078
000070
0000F0
0000F0
0000E0
0001E0
0001C0
0003C0
0003C0
000380
000780
000780
000700
000F00
000F00
000E00
001E00
001E00
001C00
003C00
003C00
007800
007800
007000
00F000
00F000
00E000
01E000
01E000
01C000
03C000
03C000
038000
078000
078000
070000
0F0000
0E0000
1E0000
1E0000
1C0000
3C0000
3C0000
380000
780000
ENDCHAR

STARTCHAR zero
ENCODING 48
SWIDTH 620 0
DWIDTH 31 0
BBX 28 36 2 -1
BITMAP
003FC000
00FFF000
01F0FC00
03C03E00
07801E00
0F800F00
0F000F80
1F000780
1E000780
3E0007C0
3E0003C0
3C0003C0
3C0003C0
7C0003E0
7C0003E0
7C0003E0
7C0003E0
7C0003E0
7C0003E0
7C0003E0
7C0003E0
7C0003E0
7C0003E0
3C0003C0
3C0003C0
3E0003C0
3E0007C0
1E000780
1F000780
0F000F00
0F801F00
07801E00
03C03C00
01F0F800
00FFF000
003FC000
ENDCHAR

STARTCHAR one
ENCODING 49
SWIDTH 620 0
DWIDTH 31 0
BBX 19 34 7 0
BITMAP
007000
01F000
0FF000
3FF000
3FF000
00F000
00F000
00F000
00F000
00F000
00F000
00F000
00F000
00F000
00F000
00F000
00F000
00F000
00F000
00F000
00F000
00F000
00F000
00F000
00F000
00F000
00F000
00F000
00F000
00F000
00F000
01F800
3FFFC0
3FFFC0
ENDCHAR

STARTCHAR two
ENCODING 50
SWIDTH 620 0
DWIDTH 31 0
BBX 28 36 1 -1
BITMAP
001FC000
00FFF800
03FFFC00
07C07E00
0F003F00
1E001F80
1C000F80
380007C0
380007C0
300007C0
300007C0
300007C0
300007C0
300007C0
00000F80
00000F80
00000F00
00001F00
00003E00
00007C00
0000F800
0001F000
0003E000
0007C000
000F0000
001E0000
003C0000
00F000C0
01E000C0
038000C0
0F0001C0
1FFFFF80
3FFFFF80
7FFFFF80
7FFFFF80
00000180
ENDCHAR

STARTCHAR three
ENCODING 51
SWIDTH 620 0
DWIDTH 31 0
BBX 28 36 1 -1
BITMAP
003FC000
00FFF800
01FFFC00
03C0FE00
07803F00
0E001F00
0E000F80
1C000F80
1C000F80
1C000F80
00000F80
00000F00
00001F00
00001E00
00007C00
0001F800
003FE000
003FF000
0000FC00
00001F00
00000F80
00000780
000003C0
000003C0
000003E0
000003E0
3C0003E0
3C0003E0
3E0003C0
3E0007C0
3F0007C0
1F000F80
0F803F00
07E0FE00
01FFF800
003FE000
ENDCHAR

STARTCHAR four
ENCODING 52
SWIDTH 620 0
DWIDTH 31 0
BBX 30 34 0 0
BITMAP
00003C00
00007C00
0000FC00
0001FC00
0003BC00
00073C00
000F3C00
000E3C00
001C3C00
00383C00
00703C00
00E03C00
01E03C00
03C03C00
03803C00
07003C00
0E003C00
1C003C00
38003C00
38003C00
3FFFFFF0
3FFFFFF0
3FFFFFF0
00003C00
00003C00
00003C00
00003C00
00003C00
00003C00
00003C00
00003C00
00003C00
00003C00
00003C00
ENDCHAR

STARTCHAR five
ENCODING 53
SWIDTH 620 0
DWIDTH 31 0
BBX 28 36 2 -1
BITMAP
00000300
07FFFF00
07FFFF00
07FFFF00
07FFFF00
06000000
0E000000
0E000000
0E000000
0E000000
0E000000
0E000000
0E000000
0FFFC000
0FFFF800
0FFFFC00
0F01FE00
00003F00
00001F80
00000F80
000007C0
000007C0
000007C0
000003C0
000003C0
000003C0
180003C0
3C0003C0
3E000780
3E000780
3F000F00
1F001F00
0F803E00
07E0FC00
01FFF000
007FC000
ENDCHAR

STARTCHAR six
ENCODING 54
SWIDTH 620 0
DWIDTH 31 0
BBX 29 35 1 -1
BITMAP
00007F00
0007FF00
001FF800
003F0000
00FC0000
01F00000
03E00000
07C00000
07800000
0F800000
0F000000
1F000000
1F07E000
1E1FFC00
1E3FFF00
3EF01F80
3EC00FC0
3F8007E0
3F8003E0
3F0003E0
3F0001F0
3E0001F0
3E0001F0
3E0001F0
3E0001F0
1E0001F0
1F0001F0
1F0003E0
0F0003E0
0F8007C0
07C007C0
03E00F80
01F87F00
00FFFC00
001FF000
ENDCHAR

STARTCHAR seven
ENCODING 55
SWIDTH 620 0
DWIDTH 31 0
BBX 29 35 1 0
BITMAP
0C000000
0FFFFFF0
0FFFFFF0
0FFFFFE0
1FFFFFE0
180001C0
18000380
38000300
30000700
30000E00
00001C00
00001C00
00003800
00007800
0000F000
0000F000
0001E000
0001E000
0003C000
0003C000
00078000
00078000
000F8000
000F0000
000F0000
001F0000
001E0000
001E0000
003E0000
003E0000
003E0000
003C0000
007C0000
007C0000
007C0000
ENDCHAR

STARTCHAR eight
ENCODING 56
SWIDTH 620 0
DWIDTH 31 0
BBX 29 36 1 -1
BITMAP
003FE000
00FFF800
03F0FC00
07801E00
0F000F00
0E000F80
0E000780
1E000780
1E000780
1E000780
1F000F80
1F800F00
0FC01E00
0FF03C00
07FCF800
03FFE000
00FFE000
007FF800
01F7FE00
07C1FF00
0F007F80
1E001FC0
3E0007C0
3C0003E0
780003E0
780001E0
780001E0
780001E0
780001E0
3C0003C0
3E0003C0
1E000780
0F801F00
07F07E00
01FFF800
007FE000
ENDCHAR

STARTCHAR nine
ENCODING 57
SWIDTH 620 0
DWIDTH 31 0
BBX 29 35 1 0
BITMAP
007FC000
01FFF800
07E07C00
0F803E00
1F000F00
1F000F80
3E000780
3E0007C0
7C0003C0
7C0003C0
7C0003E0
7C0003E0
7C0003E0
7C0003E0
7C0007E0
3E0007E0
3E000FE0
1F000FE0
1F801FE0
0FE07BE0
07FFF3E0
01FFC3C0
003F07C0
000007C0
00000780
00000F80
00000F00
00001F00
00003E00
00007C00
0001F800
0007F000
01FFC000
07FF0000
07F00000
ENDCHAR

STARTCHAR colon
ENCODING 58
SWIDTH 320 0
DWIDTH 16 0
BBX 10 25 3 0
BITMAP
1E00
3F00
3F00
3F00
3F00
1E00
0000
0000
0000
0000
0000
0000
0000
0000
0000
0000
0000
0000
0000
1E00
3F00
3F00
3F00
3F00
1E00
ENDCHAR

STARTCHAR semicolon
ENCODING 59
SWIDTH 320 0
DWIDTH 16 0
BBX 10 34 3 -9
BITMAP
1E00
3F00
3F00
3F00
3F00
1E00
0000
0000
0000
0000
0000
0000
0000
0000
0000
0000
0000
0000
0000
0C00
3F00
3F00
3F80
3F80
1F80
0380
0300
0700
0600
0E00
1C00
3800
3000
2000
ENDCHAR

STARTCHAR less
ENCODING 60
SWIDTH 600 0
DWIDTH 30 0
BBX 25 22 2 4
BITMAP
00000300
00001F00
00007F00
0001FE00
0007F000
003FC000
00FF0000
03F80000
0FE00000
3F800000
3C000000
3F000000
1FC00000
07F80000
00FE0000
003F8000
000FF000
0003FC00
00007F00
00001F00
00000700
00000100
ENDCHAR

STARTCHAR equal
ENCODING 61
SWIDTH 600 0
DWIDTH 30 0
BBX 26 11 2 12
BITMAP
7FFFFF80
7FFFFF80
7FFFFF80
00000000
00000000
00000000
00000000
00000000
7FFFFF80
7FFFFF80
7FFFFF80
ENDCHAR

STARTCHAR greater
ENCODING 62
SWIDTH 600 0
DWIDTH 30 0
BBX 25 22 3 4
BITMAP
60000000
7C000000
7F000000
3FC00000
07F00000
01FE0000
007F8000
000FE000
0003FC00
0000FE00
00001E00
00007E00
0001FC00
000FF000
003F8000
00FE0000
07F80000
1FE00000
7F000000
7C000000
70000000
40000000
ENDCHAR

STARTCHAR question
ENCODING 63
SWIDTH 540 0
DWIDTH 27 0
BBX 27 35 0 0
BITMAP
01FF8000
07FFE000
1FC1F800
1F807C00
3F003E00
3E001F00
3C000F00
18000F80
00000F80
00000780
00000780
00000780
00000F80
00000F80
00001F80
00001F00
00007F00
0003FE00
00FFFC00
00FFF000
00FF8000
00E00000
00E00000
00E00000
00E00000
00E00000
00E00000
00000000
00000000
00700000
01F80000
01F80000
01F80000
01F80000
00F00000
ENDCHAR

STARTCHAR at
ENCODING 64
SWIDTH 820 0
DWIDTH 41 0
BBX 46 46 -2 -11
BITMAP
00000FFE0000
000078038000
0003C0006000
000700003800
001C00000C00
003800000600
007000000300
00E000000100
01C000000180
038000000080
0300000000C0
070001E1C040
0600071BC040
0E000C0B8060
0C00380F8060
1C00780F8060
1800700F0060
1800E00F0060
3801E00F0060
3801C00F0060
3003C00E0040
3003801E0040
3007801E00C0
3007803C00C0
3007003C0180
300F007C0180
300F007C0300
380F00B80300
380F01780600
180F03780C00
180F8E781818
1807FC787010
0C07F03FE030
0C01E01F0020
0E0000000060
0600000000C0
0300000000C0
038000000180
01C000000300
00E000000600
007000001C00
003C00003800
000E0000E000
0003C0078000
0000FFFE0000
00000FE00000
ENDCHAR

STARTCHAR A
ENCODING 65
SWIDTH 680 0
DWIDTH 34 0
BBX 36 34 -1 0
BITMAP
0000F00000
0000F80000
0001F80000
0001F80000
0003FC0000
0003FC0000
00033E0000
00073E0000
00071E0000
00061F0000
000E1F0000
000C0F0000
001C0F8000
001C0F8000
001807C000
003807C000
003807C000
007003E000
007003E000
007FFFE000
00FFFFF000
00E001F000
00C000F000
01C000F800
01C000F800
0380007C00
0380007C00
0380007C00
0700003E00
0700003E00
0F00003F00
1F80003F80
7FE001FFE0
7FE001FFE0
ENDCHAR

STARTCHAR B
ENCODING 66
SWIDTH 740 0
DWIDTH 37 0
BBX 36 34 0 0
BITMAP
3FFFFF8000
3FFFFFF000
07FFFFFC00
03E0007E00
03E0003F00
03E0001F80
03E0000F80
03E0000F80
03E0000F80
03E0000F80
03E0000F80
03E0001F00
03E0001F00
03E0007E00
03E003F800
03FFFFE000
03FFFFF800
03E001FE00
03E0003F00
03E0001F80
03E0000F80
03E00007C0
03E00007C0
03E00007C0
03E00007C0
03E00007C0
03E00007C0
03E0000F80
03E0001F80
03E0003F00
03E000FE00
07FFFFFC00
3FFFFFF000
3FFFFF0000
ENDCHAR

STARTCHAR C
ENCODING 67
SWIDTH 740 0
DWIDTH 37 0
BBX 36 36 1 -1
BITMAP
0000FC0000
0007FF8E00
001FFFEE00
007F01FE00
00FC007E00
01F0001F00
03E0000F00
07C0000F00
07C0000700
0F80000380
0F80000380
1F00000180
1F00000180
1F00000000
3E00000000
3E00000000
3E00000000
3E00000000
3E00000000
3E00000000
3E00000000
3F00000000
3F00000000
1F00000000
1F00000000
1F80000000
0F800000C0
0FC00001C0
07E00003C0
03F0000780
03F8000F00
01FC003E00
007F81FC00
003FFFF000
000FFFC000
0001FE0000
ENDCHAR

STARTCHAR D
ENCODING 68
SWIDTH 800 0
DWIDTH 40 0
BBX 39 34 0 0
BITMAP
3FFFFC0000
3FFFFFE000
07FFFFF800
03E001FC00
03E0007F00
03E0001F80
03E0000FC0
03E00007C0
03E00003E0
03E00003E0
03E00001F0
03E00001F0
03E00001F8
03E00000F8
03E00000F8
03E00000F8
03E00000F8
03E00000F8
03E00000F8
03E00000F8
03E00000F8
03E00001F8
03E00001F0
03E00001F0
03E00003F0
03E00003E0
03E00007E0
03E0000FC0
03E0000F80
03E0003F00
03E000FE00
07FFFFFC00
3FFFFFF000
3FFFFF0000
ENDCHAR

STARTCHAR E
ENCODING 69
SWIDTH 720 0
DWIDTH 36 0
BBX 36 34 1 0
BITMAP
3FFFFFF800
3FFFFFFC00
07FFFFFC00
03E0007C00
03E0001E00
03E0000E00
03E0000700
03E0000700
03E0000300
03E00C0200
03E00C0000
03E00C0000
03E01C0000
03E01C0000
03E07C0000
03FFFC0000
03FFFC0000
03E07C0000
03E01C0000
03E00C0000
03E00C0000
03E00C0000
03E00C0000
03E00C01C0
03E00001C0
03E0000380
03E0000780
03E0000700
03E0000F00
03E0003F00
03E000FE00
07FFFFFE00
3FFFFFFE00
3FFFFFFC00
ENDCHAR

STARTCHAR F
ENCODING 70
SWIDTH 640 0
DWIDTH 32 0
BBX 31 34 2 0
BITMAP
7FFFFFE0
7FFFFFE0
0FFFFFE0
07C003F0
07C000F0
07C00078
07C00038
07C00018
07C0001C
07C00008
07C01800
07C01800
07C01800
07C03800
07C03800
07C0F800
07FFF800
07FFF800
07C0F800
07C03800
07C03800
07C01800
07C01800
07C01800
07C01800
07C00000
07C00000
07C00000
07C00000
07C00000
07C00000
0FE00000
7FFC0000
7FFC0000
ENDCHAR

STARTCHAR G
ENCODING 71
SWIDTH 800 0
DWIDTH 40 0
BBX 39 36 1 -1
BITMAP
0000FC0000
000FFF8600
001FFFEE00
007F01FE00
00FC007F00
01F0001F00
03E0000F00
07E0000F00
07C0000780
0F80000380
1F80000380
1F00000180
1F00000000
3F00000000
3F00000000
3E00000000
3E00000000
3E00000000
3E0000FFFC
3E0000FFFC
3E00000FE0
3F000007C0
3F000007C0
1F000007C0
1F000007C0
1F800007C0
0F800007C0
0FC00007C0
07E00007C0
03F0000FC0
01F8000FC0
00FC003FC0
007F00FFC0
003FFFF1C0
000FFFC1C0
0001FC0000
ENDCHAR

STARTCHAR H
ENCODING 72
SWIDTH 800 0
DWIDTH 40 0
BBX 38 34 1 0
BITMAP
3FFE00FFF8
3FFE00FFF8
07F0001FC0
03E0000F80
03E0000F80
03E0000F80
03E0000F80
03E0000F80
03E0000F80
03E0000F80
03E0000F80
03E0000F80
03E0000F80
03E0000F80
03E0000F80
03FFFFFF80
03FFFFFF80
03FFFFFF80
03E0000F80
03E0000F80
03E0000F80
03E0000F80
03E0000F80
03E0000F80
03E0000F80
03E0000F80
03E0000F80
03E0000F80
03E0000F80
03E0000F80
03E0000F80
03E0000F80
3FFE00FFF8
3FFE00FFF8
ENDCHAR

STARTCHAR I
ENCODING 73
SWIDTH 340 0
DWIDTH 17 0
BBX 16 34 1 0
BITMAP
7FFC
7FFC
0FE0
07C0
07C0
07C0
07C0
07C0
07C0
07C0
07C0
07C0
07C0
07C0
07C0
07C0
07C0
07C0
07C0
07C0
07C0
07C0
07C0
07C0
07C0
07C0
07C0
07C0
07C0
07C0
07C0
0FE0
7FFC
7FFC
ENDCHAR

STARTCHAR J
ENCODING 74
SWIDTH 600 0
DWIDTH 30 0
BBX 31 35 -1 -1
BITMAP
0000FFF8
0000FFF8
00001FC0
00000F80
00000F80
00000F80
00000F80
00000F80
00000F80
00000F80
00000F80
00000F80
00000F80
00000F80
00000F80
00000F80
00000F80
00000F80
00000F80
00000F80
00000F80
00000F80
3C000F80
3C000F80
7C000F80
7C000F80
7C000F00
7C000F00
3C001F00
3E001E00
1F003E00
0F80FC00
07FFF800
01FFE000
003F0000
ENDCHAR

STARTCHAR K
ENCODING 75
SWIDTH 720 0
DWIDTH 36 0
BBX 37 34 1 0
BITMAP
3FFE03FFC0
3FFE03FFC0
07F0007E00
03E0007800
03E000F000
03E001E000
03E003C000
03E0078000
03E00F0000
03E01E0000
03E03C0000
03E0780000
03E0F00000
03E0E00000
03E1E00000
03E3E00000
03E7F00000
03EFF80000
03FCFC0000
03F87C0000
03F07E0000
03E03F0000
03E01F8000
03E01F8000
03E00FC000
03E007E000
03E003F000
03E003F000
03E001F800
03E000FC00
03E000FE00
07F000FF00
3FFE07FFE0
3FFE07FFE0
ENDCHAR

STARTCHAR L
ENCODING 76
SWIDTH 600 0
DWIDTH 30 0
BBX 32 34 0 0
BITMAP
3FFE0000
3FFE0000
03F00000
03E00000
03E00000
03E00000
03E00000
03E00000
03E00000
03E00000
03E00000
03E00000
03E00000
03E00000
03E00000
03E00000
03E00000
03E00000
03E00000
03E00000
03E00000
03E00000
03E00000
03E0000C
03E0001C
03E00018
03E00038
03E00078
03E000F0
03E003F0
03E00FF0
07FFFFE0
3FFFFFE0
3FFFFFE0
ENDCHAR

STARTCHAR M
ENCODING 77
SWIDTH 920 0
DWIDTH 46 0
BBX 44 34 1 0
BITMAP
7FF00000FFC0
7FF80001FFC0
07F80001FE00
03F80003FC00
03FC0003FC00
03BC0003FC00
03BE00077C00
03BE00077C00
039E00077C00
039F000E7C00
039F000E7C00
038F000C7C00
038F801C7C00
038F801C7C00
038780187C00
0387C0387C00
0383C0387C00
0383E0707C00
0383E0707C00
0381E0707C00
0381F0E07C00
0381F0E07C00
0380F0C07C00
0380F9C07C00
0380F9C07C00
03807D807C00
03807F807C00
03803F807C00
03803F007C00
03803F007C00
03801F007C00
07C01E00FE00
7FF81E07FFC0
7FF80E07FFC0
ENDCHAR

STARTCHAR N
ENCODING 78
SWIDTH 740 0
DWIDTH 37 0
BBX 37 34 0 0
BITMAP
3FF800FFE0
3FF800FFE0
07FC001F00
03FC000E00
03BE000E00
03BF000E00
039F000E00
038F800E00
038FC00E00
0387C00E00
0387E00E00
0383E00E00
0381F00E00
0381F80E00
0380F80E00
03807C0E00
03807C0E00
03803E0E00
03803F0E00
03801F0E00
03800F8E00
03800FCE00
038007CE00
038003EE00
038003EE00
038001FE00
038001FE00
038000FE00
0380007E00
0380007E00
0380003E00
07C0003E00
3FF8001E00
3FF8000E00
ENDCHAR

STARTCHAR O
ENCODING 79
SWIDTH 800 0
DWIDTH 40 0
BBX 39 36 0 -1
BITMAP
0000FE0000
0007FFE000
001FFFF800
007F00FC00
00FC003F00
01F0001F80
03E0000F80
07C00007C0
07C00003E0
0F800003E0
0F800001F0
1F000001F0
1F000001F0
1F000001F8
3F000000F8
3E000000F8
3E000000F8
3E000000F8
3E000000F8
3E000000F8
3E000000F8
3E000000F8
3F000001F8
1F000001F0
1F000001F0
1F000001F0
0F800003E0
0F800003E0
07C00007C0
07E0000FC0
03E0001F80
01F8003F00
00FC007E00
003F83F800
000FFFE000
0003FF8000
ENDCHAR

STARTCHAR P
ENCODING 80
SWIDTH 620 0
DWIDTH 31 0
BBX 32 34 1 0
BITMAP
3FFFFC00
3FFFFF80
07FFFFC0
03E007F0
03E001F0
03E000F8
03E000FC
03E0007C
03E0007C
03E0007C
03E0007C
03E0007C
03E0007C
03E000F8
03E000F8
03E001F0
03E007E0
03FFFFC0
03FFFF80
03FFFC00
03E00000
03E00000
03E00000
03E00000
03E00000
03E00000
03E00000
03E00000
03E00000
03E00000
03E00000
07F00000
3FFE0000
3FFE0000
ENDCHAR

STARTCHAR Q
ENCODING 81
SWIDTH 820 0
DWIDTH 41 0
BBX 38 44 2 -9
BITMAP
0000FE0000
0007FFC000
003FFFF000
007E00F800
00F8003E00
01F0001F00
03E0000F80
07C0000F80
0F800007C0
0F800007C0
1F000003E0
1F000003E0
1F000003F0
3F000003F0
3E000001F0
3E000001F0
3E000001F0
3E000001F0
3E000001F0
3E000001F0
3E000001F0
3E000001F0
3F000003F0
1F000003E0
1F000003E0
1F000003E0
0F800007C0
0F800007C0
07C0000F80
03E0001F00
01F0003E00
00F8007C00
007E01F800
001FFFF000
0007FF8000
0000780000
0000780000
0000780000
00007C0000
00007E0080
00003F0780
00001FFF80
00000FFE00
000003F800
ENDCHAR

STARTCHAR R
ENCODING 82
SWIDTH 720 0
DWIDTH 36 0
BBX 37 34 1 0
BITMAP
3FFFFF0000
3FFFFFE000
07FFFFF800
03E000FC00
03E0007E00
03E0003E00
03E0001F00
03E0001F00
03E0001F00
03E0001F00
03E0001F00
03E0001F00
03E0003E00
03E0003E00
03E000FC00
03E003F800
03FFFFF000
03FFFF8000
03E1F80000
03E0F80000
03E07C0000
03E03E0000
03E03F0000
03E01F8000
03E00FC000
03E007C000
03E003E000
03E003F000
03E001F800
03E000FC00
03E0007E00
03F0007F00
3FFE003FE0
3FFE001FE0
ENDCHAR

STARTCHAR S
ENCODING 83
SWIDTH 660 0
DWIDTH 33 0
BBX 31 36 2 -1
BITMAP
001F8000
00FFF180
03FFFDC0
07C07FC0
0F001FC0
1E0007C0
3E0003E0
3C0001E0
3C0000E0
3C0000E0
3E000070
3F000070
1F800000
1FE00000
0FFE0000
07FFC000
03FFF800
00FFFF00
001FFF80
0001FFE0
00003FF0
000007F0
000003F8
700000F8
700000F8
38000078
3C000078
3C000078
3E0000F8
3F0000F0
1F8001F0
1FE003E0
1DF80FC0
1CFFFF80
183FFE00
0007E000
ENDCHAR

STARTCHAR T
ENCODING 84
SWIDTH 620 0
DWIDTH 31 0
BBX 35 35 -2 0
BITMAP
0600000C00
07FFFFFE00
0FFFFFFE00
0FE1F07E00
1F01F01F00
1E01F00F00
1C01F00700
3801F00380
3801F00380
3001F00180
0001F00000
0001F00000
0001F00000
0001F00000
0001F00000
0001F00000
0001F00000
0001F00000
0001F00000
0001F00000
0001F00000
0001F00000
0001F00000
0001F00000
0001F00000
0001F00000
0001F00000
0001F00000
0001F00000
0001F00000
0001F00000
0001F00000
0003F80000
001FFF0000
001FFF0000
ENDCHAR

STARTCHAR U
ENCODING 85
SWIDTH 780 0
DWIDTH 39 0
BBX 39 35 0 -1
BITMAP
3FFE003FF8
3FFE003FF8
07F00007C0
03E0000380
03E0000380
03E0000380
03E0000380
03E0000380
03E0000380
03E0000380
03E0000380
03E0000380
03E0000380
03E0000380
03E0000380
03E0000380
03E0000380
03E0000380
03E0000380
03E0000380
03E0000380
03E0000380
03E0000380
03E0000380
03E0000380
01E0000380
01F0000700
01F0000700
00F8000F00
00FC001E00
007E007C00
003F81F800
001FFFF000
0007FFC000
0001FF0000
ENDCHAR

STARTCHAR V
ENCODING 86
SWIDTH 700 0
DWIDTH 35 0
BBX 37 34 -1 0
BITMAP
7FFC007FF0
7FFC007FF0
0FC00007C0
0FC0000780
07C0000700
07E0000700
03E0000E00
03E0000E00
01F0001C00
01F0001C00
01F0001C00
00F8003800
00F8003800
007C007000
007C007000
007C007000
003E00E000
003E00E000
001E01C000
001F01C000
001F01C000
000F838000
000F838000
0007830000
0007C70000
0007C70000
0003EE0000
0003EE0000
0001EC0000
0001FC0000
0001FC0000
0000F80000
0000F80000
0000700000
ENDCHAR

STARTCHAR W
ENCODING 87
SWIDTH 960 0
DWIDTH 48 0
BBX 50 34 -1 0
BITMAP
3FFC3FFC03FF00
3FFC3FFC03FF00
0FE007E0007C00
07C003E0003800
07C003E0003800
03E003E0007000
03E001F0007000
03E001F0007000
01F001F000E000
01F000F800E000
01F001F800E000
00F001F801C000
00F801F801C000
00F803FC01C000
007803FC038000
007C033C038000
007C073E038000
003C073E030000
003E061E070000
003E0E1F070000
001E0E1F060000
001F0C1F0E0000
001F1C0F8E0000
001F1C0F8E0000
000F980F9C0000
000FB8079C0000
000FB807DC0000
0007B007F80000
0007F003F80000
0007F003F80000
0003F003F00000
0003E001F00000
0003E001F00000
0001E001E00000
ENDCHAR

STARTCHAR X
ENCODING 88
SWIDTH 720 0
DWIDTH 36 0
BBX 38 34 -1 0
BITMAP
1FFF00FFF0
1FFF00FFF0
03F8001F80
01F8001E00
01F8001C00
00FC003C00
007E007800
003E007000
003F00E000
001F81C000
000FC38000
0007C78000
0003EF0000
0003FE0000
0001FC0000
0000FC0000
00007C0000
0000FE0000
0001FF0000
0001DF8000
00038F8000
00070FC000
000E07E000
001E03F000
003C01F000
003801F800
007000FC00
00E0007E00
01E0003E00
03C0003F00
0780001F80
0F80001FC0
7FF000FFF8
7FF000FFF8
ENDCHAR

STARTCHAR Y
ENCODING 89
SWIDTH 640 0
DWIDTH 32 0
BBX 35 34 -2 0
BITMAP
3FFC01FF80
3FFC01FF80
07E0003E00
03E0003C00
03E0003800
01F0007000
01F8007000
00F800E000
00FC01E000
007C01C000
007E038000
003E038000
001F070000
001F070000
000F8E0000
000F9E0000
0007DC0000
0007F80000
0003F80000
0003F00000
0001F00000
0001F00000
0001F00000
0001F00000
0001F00000
0001F00000
0001F00000
0001F00000
0001F00000
0001F00000
0001F00000
0003F80000
001FFF0000
001FFF0000
ENDCHAR

STARTCHAR Z
ENCODING 90
SWIDTH 640 0
DWIDTH 32 0
BBX 33 34 0 0
BITMAP
03FFFFFC00
07FFFFFC00
07FFFFF800
07E001F800
0F8003F000
0E0003E000
1C0007C000
1C000FC000
38001F8000
10001F0000
00003E0000
00007E0000
0000FC0000
0001F80000
0001F00000
0003E00000
0007E00000
000FC00000
000F800000
001F000000
003F000000
007E000000
007C000000
00F8000700
01F8000E00
03F0000E00
07E0001C00
07C0003C00
0FC0007C00
1F8000F800
3F0007F800
3FFFFFF800
7FFFFFF000
7FFFFFF000
ENDCHAR

STARTCHAR bracketleft
ENCODING 91
SWIDTH 300 0
DWIDTH 15 0
BBX 10 47 4 -11
BITMAP
7F80
7F80
7800
7800
7800
7800
7800
7800
7800
7800
7800
7800
7800
7800
7800
7800
7800
7800
7800
7800
7800
7800
7800
7800
7800
7800
7800
7800
7800
7800
7800
7800
7800
7800
7800
7800
7800
7800
7800
7800
7800
7800
7800
7800
7800
7F80
7F80
ENDCHAR

STARTCHAR backslash
ENCODING 92
SWIDTH 600 0
DWIDTH 30 0
BBX 23 47 4 -11
BITMAP
3C0000
3C0000
1C0000
1E0000
1E0000
0E0000
0F0000
0F0000
078000
078000
078000
03C000
03C000
01C000
01E000
01E000
00E000
00F000
00F000
007000
007800
007800
003800
003C00
003C00
001C00
001E00
001E00
000F00
000F00
000F00
000780
000780
000380
0003C0
0003C0
0001C0
0001E0
0001E0
0000E0
0000F0
0000F0
000070
000078
000078
000038
00003C
ENDCHAR

STARTCHAR bracketright
ENCODING 93
SWIDTH 300 0
DWIDTH 15 0
BBX 10 47 1 -11
BITMAP
7F80
7F80
0780
0780
0780
0780
0780
0780
0780
0780
0780
0780
0780
0780
0780
0780
0780
0780
0780
0780
0780
0780
0780
0780
0780
0780
0780
0780
0780
0780
0780
0780
0780
0780
0780
0780
0780
0780
0780
0780
0780
0780
0780
0780
0780
7F80
7F80
ENDCHAR

STARTCHAR asciicircum
ENCODING 94
SWIDTH 600 0
DWIDTH 30 0
BBX 28 20 1 15
BITMAP
000F0000
000F0000
001F8000
001F8000
003FC000
0039C000
0079E000
0070F000
00F0F000
00E07800
01E07800
03C03C00
03801C00
07801E00
07000E00
0F000F00
0E000700
1E000780
1C000380
3C0003C0
ENDCHAR

STARTCHAR underscore
ENCODING 95
SWIDTH 500 0
DWIDTH 25 0
BBX 29 2 -2 -6
BITMAP
3FFFFFE0
3FFFFFE0
ENDCHAR

STARTCHAR quoteleft
ENCODING 96
SWIDTH 220 0
DWIDTH 11 0
BBX 10 14 1 21
BITMAP
0380
0700
0E00
1C00
1800
3800
3000
7000
7E00
7F00
7F00
3F00
3F00
0C00
ENDCHAR

STARTCHAR a
ENCODING 97
SWIDTH 580 0
DWIDTH 29 0
BBX 30 26 0 -1
BITMAP
003FC000
01FFF000
03E0FC00
07807C00
0F803E00
0F001E00
0F001E00
0F001E00
0E001E00
04001E00
00001E00
000FFE00
00FFFE00
03FC1E00
0FC01E00
1F001E00
1E001E00
3C001E00
3C001E00
3C003E00
3E007E00
3E01FE00
1F07DF00
1FFF8F08
07FE07F8
01F803F8
ENDCHAR

STARTCHAR b
ENCODING 98
SWIDTH 620 0
DWIDTH 31 0
BBX 30 38 0 -1
BITMAP
00C00000
03C00000
3FC00000
3FC00000
03C00000
03C00000
03C00000
03C00000
03C00000
03C00000
03C00000
03C00000
03C0F800
03C7FF00
03DFFF80
03FC0FC0
03F007E0
03E003E0
03C001F0
03C001F0
03C000F0
03C000F8
03C000F8
03C000F8
03C000F8
03C000F8
03C000F8
03C000F8
03C000F0
03C000F0
03C001F0
03E001E0
03E003E0
03F007C0
03BC1F80
039FFF00
0307FE00
0001F000
ENDCHAR

STARTCHAR c
ENCODING 99
SWIDTH 520 0
DWIDTH 26 0
BBX 26 26 1 -1
BITMAP
007FC000
01FFF000
03F0F800
07C07C00
0F003E00
1F001E00
1E001F00
3E001E00
3C000C00
3C000000
7C000000
7C000000
7C000000
7C000000
7C000000
7C000000
3C000000
3E000000
3E000200
1F000700
1F000E00
0F801C00
07E07800
03FFF000
00FFC000
003F0000
ENDCHAR

STARTCHAR d
ENCODING 100
SWIDTH 620 0
DWIDTH 31 0
BBX 30 38 1 -1
BITMAP
00000300
00000F00
0000FF00
0000FF00
0000FF00
00000F00
00000F00
00000F00
00000F00
00000F00
00000F00
00000F00
003E0F00
01FFCF00
03FFEF00
07E0FF00
0F803F00
1F001F00
1E001F00
3E000F00
3C000F00
3C000F00
7C000F00
7C000F00
7C000F00
7C000F00
7C000F00
7C000F00
3C000F00
3C000F00
3E000F00
3E000F00
1F003F00
1F807F00
0FC1EF80
07FFCFF0
01FF0FF0
007C0F80
ENDCHAR

STARTCHAR e
ENCODING 101
SWIDTH 520 0
DWIDTH 26 0
BBX 25 26 1 -1
BITMAP
007F8000
01FFE000
07E1F000
0F807800
0F003C00
1E003C00
3E003E00
3C001E00
3FFFFE00
7FFFFE00
7C000000
7C000000
7C000000
7C000000
7C000000
7C000000
3C000000
3E000000
3E000000
1F000600
1F000E00
0F803C00
07E07800
03FFF000
00FFC000
003F0000
ENDCHAR

STARTCHAR f
ENCODING 102
SWIDTH 320 0
DWIDTH 16 0
BBX 22 36 0 0
BITMAP
000F80
003FF0
00FFF0
01E1F8
01E0F0
03C020
03C000
03C000
03C000
03C000
03C000
03C000
3FFE00
3FFE00
03C000
03C000
03C000
03C000
03C000
03C000
03C000
03C000
03C000
03C000
03C000
03C000
03C000
03C000
03C000
03C000
03C000
03C000
03C000
07E000
3FFC00
3FFC00
ENDCHAR

STARTCHAR g
ENCODING 103
SWIDTH 540 0
DWIDTH 27 0
BBX 28 36 0 -11
BITMAP
007F81C0
01FFE7E0
03E1FFE0
07807FC0
0F003C00
0F003E00
1E001E00
1E001E00
1E001E00
1E001E00
1F001E00
1F003E00
0F803C00
07807800
03E1F000
03FFE000
0F7F8000
1C000000
1C000000
3E000000
3FC00000
1FFF0000
0FFFF800
01FFFF00
070FFF80
0E003FC0
1C0007E0
3C0001E0
380001E0
780001E0
780001C0
7C0003C0
3E000780
1FC07F00
0FFFFC00
01FFE000
ENDCHAR

STARTCHAR h
ENCODING 104
SWIDTH 660 0
DWIDTH 33 0
BBX 34 37 0 0
BITMAP
00C0000000
03C0000000
3FC0000000
3FC0000000
03C0000000
03C0000000
03C0000000
03C0000000
03C0000000
03C0000000
03C0000000
03C0000000
03C07F0000
03C3FFC000
03C7FFE000
03DF87E000
03FC01F000
03F001F000
03E000F000
03C000F000
03C000F000
03C000F000
03C000F000
03C000F000
03C000F000
03C000F000
03C000F000
03C000F000
03C000F000
03C000F000
03C000F000
03C000F000
03C000F000
03C000F000
07E001F800
3FFE1FFF00
3FFE1FFF00
ENDCHAR

STARTCHAR i
ENCODING 105
SWIDTH 300 0
DWIDTH 15 0
BBX 16 35 0 0
BITMAP
0180
03C0
07E0
07E0
03C0
0180
0000
0000
0000
0000
0000
01C0
07C0
3FC0
3FC0
03C0
03C0
03C0
03C0
03C0
03C0
03C0
03C0
03C0
03C0
03C0
03C0
03C0
03C0
03C0
03C0
03C0
07E0
3FFC
3FFC
ENDCHAR

STARTCHAR j
ENCODING 106
SWIDTH 300 0
DWIDTH 15 0
BBX 18 47 -6 -12
BITMAP
000600
000F00
001F80
001F80
000F00
000600
000000
000000
000000
000000
000000
000300
001F00
00FF00
00FF00
000F00
000F00
000F00
000F00
000F00
000F00
000F00
000F00
000F00
000F00
000F00
000F00
000F00
000F00
000F00
000F00
000F00
000F00
000F00
000F00
000F00
000F00
000F00
000F00
000F00
000F00
180E00
3C1E00
7E1C00
3FF800
1FF000
078000
ENDCHAR

STARTCHAR k
ENCODING 107
SWIDTH 620 0
DWIDTH 31 0
BBX 33 36 0 0
BITMAP
01C0000000
0FC0000000
3FC0000000
3FC0000000
03C0000000
03C0000000
03C0000000
03C0000000
03C0000000
03C0000000
03C0000000
03C0000000
03C03FFC00
03C03FFC00
03C007E000
03C0078000
03C00F0000
03C03C0000
03C0780000
03C0F00000
03C1E00000
03C3800000
03CFC00000
03DFE00000
03FBF00000
03F1F00000
03E0F80000
03C07C0000
03C03E0000
03C01F0000
03C00F8000
03C00FC000
03C007E000
07E007F000
3FFC3FFE00
3FFC3FFE00
ENDCHAR

STARTCHAR l
ENCODING 108
SWIDTH 300 0
DWIDTH 15 0
BBX 16 36 0 0
BITMAP
00C0
07C0
3FC0
3FC0
03C0
03C0
03C0
03C0
03C0
03C0
03C0
03C0
03C0
03C0
03C0
03C0
03C0
03C0
03C0
03C0
03C0
03C0
03C0
03C0
03C0
03C0
03C0
03C0
03C0
03C0
03C0
03C0
03C0
07E0
3FFC
3FFC
ENDCHAR

STARTCHAR m
ENCODING 109
SWIDTH 940 0
DWIDTH 47 0
BBX 48 25 0 0
BITMAP
00C0FC00FC00
07C3FF03FF00
3FC7FF8FFF80
3FDF0F9E0F80
03FC07F807C0
03F003F003C0
03E003E003C0
03E003C003C0
03E003C003C0
03E003C003C0
03E003C003C0
03E003C003C0
03E003C003C0
03E003C003C0
03E003C003C0
03E003C003C0
03E003C003C0
03E003C003C0
03E003C003C0
03E003C003C0
03E003C003C0
03E003C003C0
07F007E007E0
3FFE3FFC3FFC
3FFE3FFC3FFC
ENDCHAR

STARTCHAR n
ENCODING 110
SWIDTH 660 0
DWIDTH 33 0
BBX 34 25 0 0
BITMAP
01C07F0000
07C1FFC000
3FC7FFE000
3FCF07E000
03FC01F000
03F001F000
03E000F000
03C000F000
03C000F000
03C000F000
03C000F000
03C000F000
03C000F000
03C000F000
03C000F000
03C000F000
03C000F000
03C000F000
03C000F000
03C000F000
03C000F000
03C000F000
07E001F800
3FFE1FFF00
3FFE1FFF00
ENDCHAR

STARTCHAR o
ENCODING 111
SWIDTH 560 0
DWIDTH 28 0
BBX 26 26 1 -1
BITMAP
007F8000
01FFE000
03E1F800
0F807C00
0F003E00
1F001E00
1E001F00
3E001F00
3C000F00
3C000F80
7C000F80
7C000F80
7C000F80
7C000F80
7C000F80
7C000F80
7C000F80
3C000F00
3E001F00
3E001F00
1F003E00
0F003C00
0F807C00
07E1F000
01FFE000
007F8000
ENDCHAR

STARTCHAR p
ENCODING 112
SWIDTH 620 0
DWIDTH 31 0
BBX 30 36 0 -11
BITMAP
01C0FC00
07C3FF00
3FCFFF80
3FDF0FC0
03F807E0
03F003E0
03C001F0
03C001F0
03C000F0
03C000F8
03C000F8
03C000F8
03C000F8
03C000F8
03C000F8
03C000F8
03C000F0
03C000F0
03C001F0
03E001E0
03E003E0
03F007C0
03FC0F80
03DFFF00
03C7FE00
03C1F000
03C00000
03C00000
03C00000
03C00000
03C00000
03C00000
03C00000
07E00000
3FFC0000
3FFC0000
ENDCHAR

STARTCHAR q
ENCODING 113
SWIDTH 580 0
DWIDTH 29 0
BBX 30 36 1 -11
BITMAP
003E0000
01FFC700
03FFE700
07E0F700
0F803F00
1F001F00
1E001F00
3E000F00
3E000F00
3C000F00
7C000F00
7C000F00
7C000F00
7C000F00
7C000F00
7C000F00
3C000F00
3E000F00
3E000F00
3E000F00
1F001F00
0F803F00
0FE0FF00
07FFEF00
01FF8F00
007C0F00
00000F00
00000F00
00000F00
00000F00
00000F00
00000F00
00000F00
00001F80
0000FFF0
0000FFF0
ENDCHAR

STARTCHAR r
ENCODING 114
SWIDTH 440 0
DWIDTH 22 0
BBX 24 25 0 0
BITMAP
00C0F0
03C3FC
3FCFFC
3FDFFC
03FC78
03F000
03E000
03C000
03C000
03C000
03C000
03C000
03C000
03C000
03C000
03C000
03C000
03C000
03C000
03C000
03C000
03C000
07E000
3FFE00
3FFE00
ENDCHAR

STARTCHAR s
ENCODING 115
SWIDTH 520 0
DWIDTH 26 0
BBX 24 26 1 -1
BITMAP
01FC00
07FFE0
0F0FE0
1E03E0
3C01F0
3C00F0
3C0070
3E0030
3F0030
1FC000
0FF800
07FE00
01FFC0
007FE0
001FF0
0003F8
1000FC
70007C
38003C
3C003C
3C003C
1F0038
1F8078
0FE1F0
0DFFE0
007F80
ENDCHAR

STARTCHAR t
ENCODING 116
SWIDTH 380 0
DWIDTH 19 0
BBX 20 34 0 -1
BITMAP
00C000
00C000
00C000
00C000
01C000
01C000
03C000
07C000
0FC000
3FFF80
3FFF80
03C000
03C000
03C000
03C000
03C000
03C000
03C000
03C000
03C000
03C000
03C000
03C000
03C000
03C000
03C000
03C000
03C000
03C000
03E000
03E0C0
01FFC0
00FF80
003C00
ENDCHAR

STARTCHAR u
ENCODING 117
SWIDTH 680 0
DWIDTH 34 0
BBX 36 26 -2 -1
BITMAP
01E0003C00
3FE007FC00
3FE007FC00
03E000FC00
01E0003C00
01E0003C00
01E0003C00
01E0003C00
01E0003C00
01E0003C00
01E0003C00
01E0003C00
01E0003C00
01E0003C00
01E0003C00
01E0003C00
01E0003C00
01E0003C00
01E0003C00
01E0007C00
01F001FC00
00F803FC00
00FC1F3E00
007FFE3FC0
003FF83FC0
000FE03F00
ENDCHAR

STARTCHAR v
ENCODING 118
SWIDTH 520 0
DWIDTH 26 0
BBX 29 24 -2 0
BITMAP
3FF83FF0
3FF83FF0
0FC007C0
07C00380
07C00700
03C00700
03E00700
03E00E00
01E00E00
01F00C00
00F01C00
00F81800
00783800
00783800
007C3000
003C7000
003E6000
001E6000
001EE000
001FC000
000FC000
000F8000
00078000
00070000
ENDCHAR

STARTCHAR w
ENCODING 119
SWIDTH 780 0
DWIDTH 39 0
BBX 42 24 -1 0
BITMAP
7FF1FFE1FF00
7FF1FFE1FF00
1F807F003C00
0F803E003800
07801E003800
07C01F003000
07C01F007000
03C01F007000
03E01F806000
01E03F80E000
01E037C0E000
01F037C0C000
00F073C1C000
00F863E18000
0078E1E38000
0078C1E38000
007CC1F30000
003DC0F70000
003D80FE0000
003F807E0000
001F807E0000
001F007C0000
000F003C0000
000E00380000
ENDCHAR

STARTCHAR x
ENCODING 120
SWIDTH 560 0
DWIDTH 28 0
BBX 32 24 -2 0
BITMAP
1FFE1FF8
1FFE1FF8
07F803E0
01F00380
00F80700
00FC0E00
007C1C00
003E3800
001F7800
000FF000
0007E000
0007E000
0007F000
000EF800
000EFC00
001C7C00
00383E00
00701F00
00E00F80
01C00FC0
038007E0
0FC007F0
3FF03FFC
3FF03FFC
ENDCHAR

STARTCHAR y
ENCODING 121
SWIDTH 540 0
DWIDTH 27 0
BBX 32 35 -3 -11
BITMAP
1FFC0FFC
1FFC0FFC
07E001E0
03E001C0
01E001C0
01F001C0
00F00380
00F80380
00F80300
00780700
007C0600
003C0E00
003E0C00
001E0C00
001E1C00
000F1800
000F3800
000FB000
0007B000
0007E000
0003E000
0003E000
0001C000
0001C000
00018000
00038000
00030000
00030000
00070000
18060000
3C0C0000
3F1C0000
3FF80000
1FF00000
07C00000
ENDCHAR

STARTCHAR z
ENCODING 122
SWIDTH 480 0
DWIDTH 24 0
BBX 26 24 -1 0
BITMAP
03FFFF00
07FFFF00
07E03E00
0F007C00
0E00FC00
1C00F800
1C01F000
1803E000
0007C000
000FC000
000F8000
001F0000
003E0000
007C0000
00F80000
01F80300
01F00300
03E00700
07C00700
0F800E00
1F003E00
3F01FE00
3FFFFC00
3FFFFC00
ENDCHAR

STARTCHAR braceleft
ENCODING 123
SWIDTH 280 0
DWIDTH 14 0
BBX 17 46 0 -11
BITMAP
000200
001C00
003000
006000
00C000
01C000
01C000
01C000
03C000
03C000
03C000
03E000
03E000
01E000
01E000
01E000
01E000
01C000
01C000
018000
030000
060000
380000
380000
060000
030000
018000
01C000
01C000
01E000
01E000
01E000
01E000
01E000
03E000
03C000
03C000
03C000
01C000
01C000
01C000
00C000
006000
003000
001C00
000200
ENDCHAR

STARTCHAR bar
ENCODING 124
SWIDTH 600 0
DWIDTH 30 0
BBX 6 47 12 -11
BITMAP
78
78
78
78
78
78
78
78
78
78
78
78
78
78
78
78
78
78
78
78
78
78
78
78
78
78
78
78
78
78
78
78
78
78
78
78
78
78
78
78
78
78
78
78
78
78
78
ENDCHAR

STARTCHAR braceright
ENCODING 125
SWIDTH 280 0
DWIDTH 14 0
BBX 17 46 -2 -11
BITMAP
200000
1C0000
060000
030000
018000
01C000
01C000
01E000
01E000
01E000
01E000
01E000
03E000
03C000
03C000
03C000
01C000
01C000
01C000
00C000
006000
003000
000E00
000E00
001000
006000
00C000
01C000
01C000
01C000
03C000
03C000
03C000
03E000
03E000
01E000
01E000
01E000
01E000
01C000
01C000
018000
030000
060000
1C0000
200000
ENDCHAR

STARTCHAR asciitilde
ENCODING 126
SWIDTH 600 0
DWIDTH 30 0
BBX 26 7 2 13
BITMAP
03E00600
07F80700
0FFE0F00
1E3F9E00
3C0FFE00
3C07FC00
1801F000
ENDCHAR

STARTCHAR space
ENCODING 160
SWIDTH 320 0
DWIDTH 20 0
BBX 0 0 0 0
BITMAP
ENDCHAR

STARTCHAR Aogonek
ENCODING 161
SWIDTH 680 0
DWIDTH 34 0
BBX 37 41 -1 -7
BITMAP
0000F80000
0000F80000
0001F80000
0001FC0000
0001FC0000
0003BE0000
0003BE0000
00031E0000
00071F0000
00071F0000
000E0F0000
000E0F8000
000C0F8000
001C07C000
001C07C000
001807C000
003803E000
003803E000
007001E000
007FFFF000
007FFFF000
00E000F800
00E000F800
00C000F800
01C0007C00
01C0007C00
0380007C00
0380003E00
0380003E00
0700003F00
0700001F00
0F80003F80
7FF001FFE0
7FF001FFE0
0000000C00
0000001800
0000003000
0000003000
00000038C0
0000003F80
0000001E00
ENDCHAR

STARTCHAR breve
ENCODING 162
SWIDTH 460 0
DWIDTH 23 0
BBX 19 6 2 29
BITMAP
200080
3001C0
3E0F80
1FFF00
0FFE00
03F800
ENDCHAR

STARTCHAR Lslash
ENCODING 163
SWIDTH 600 0
DWIDTH 30 0
BBX 32 34 0 0
BITMAP
3FFE0000
3FFE0000
03F00000
03E00000
03E00000
03E00000
03E00000
03E03000
03E07000
03E0F000
03E1C000
03E38000
03EF0000
03FE0000
03FC0000
03F00000
03E00000
03E00000
07E00000
0FE00000
1FE00000
3BE00000
33E00000
23E0000C
03E0001C
03E00018
03E00038
03E00078
03E000F0
03E003F0
03E00FF0
07FFFFE0
3FFFFFE0
3FFFFFE0
ENDCHAR

STARTCHAR currency
ENCODING 164
SWIDTH 600 0
DWIDTH 30 0
BBX 26 24 2 5
BITMAP
10000200
383F0700
7DFFEF80
3FFFFF00
1FC0FE00
0F003C00
0E001C00
1C000E00
1C000E00
38000700
38000700
38000700
38000700
38000700
38000700
1C000E00
1C000E00
0E001E00
0F003C00
1FC0FE00
3FFFFF00
7DFFEF80
387F0700
10000200
ENDCHAR

STARTCHAR Lcaron
ENCODING 165
SWIDTH 600 0
DWIDTH 30 0
BBX 32 35 0 0
BITMAP
00000C00
3FFE1F00
3FFE3F00
03F03F80
03E03F80
03E01F80
03E00380
03E00300
03E00700
03E00700
03E00E00
03E01C00
03E03800
03E03000
03E02000
03E00000
03E00000
03E00000
03E00000
03E00000
03E00000
03E00000
03E00000
03E00000
03E0000C
03E0001C
03E00038
03E00038
03E00078
03E000F0
03E003F0
03E00FF0
07FFFFE0
3FFFFFE0
3FFFFFE0
ENDCHAR

STARTCHAR Sacute
ENCODING 166
SWIDTH 660 0
DWIDTH 33 0
BBX 31 44 2 -1
BITMAP
0000F000
0003F000
0007F000
000FE000
003E0000
00000000
00000000
00000000
001F8000
00FFF180
03FFFDC0
07C07FC0
0F001FC0
1E0007C0
3E0003E0
3C0001E0
3C0000E0
3C0000E0
3E000070
3F000070
1F800000
1FE00000
0FFE0000
07FFC000
03FFF800
00FFFF00
001FFF80
0001FFE0
00003FF0
000007F0
000003F8
700000F8
700000F8
38000078
3C000078
3C000078
3E0000F8
3F0000F0
1F8001F0
1FE003E0
1DF80FC0
1CFFFF80
183FFE00
0007E000
ENDCHAR

STARTCHAR section
ENCODING 167
SWIDTH 520 0
DWIDTH 26 0
BBX 27 44 -1 -9
BITMAP
007FE000
01FFF800
03E0FC00
07803E00
0F001F00
1E001F00
1E001F00
1E000F00
1E000E00
1F000000
1F800000
0FE00000
07FE0000
03FFC000
01FFF000
03BFFC00
0703FE00
0E007F00
1E001F00
1C000F80
3C000780
3C000780
3C000780
3E000700
1F000700
1FC00700
0FF80E00
07FF9C00
03FFF800
00FFFC00
000FFE00
0000FF00
00003F80
00000F80
1C000F80
3C000780
3C000780
3E000780
3E000F00
1E000F00
1F801E00
0FE0FC00
03FFF000
007FC000
ENDCHAR

STARTCHAR dieresis
ENCODING 168
SWIDTH 420 0
DWIDTH 21 0
BBX 17 6 3 28
BITMAP
3C3C00
7E3E00
7E7E00
7E7E00
3E3E00
3C3C00
ENDCHAR

STARTCHAR Scaron
ENCODING 169
SWIDTH 660 0
DWIDTH 33 0
BBX 31 44 2 -1
BITMAP
00000400
00F03C00
007EF800
001FE000
000FC000
00030000
00000000
00000000
001F8000
00FFF180
03FFFDC0
07C07FC0
0F001FC0
1E0007C0
3E0003E0
3C0001E0
3C0000E0
3C0000E0
3E000070
3F000070
1F800000
1FE00000
0FFE0000
07FFC000
03FFF800
00FFFF00
001FFF80
0001FFE0
00003FF0
000007F0
000003F8
700000F8
700000F8
38000078
3C000078
3C000078
3E0000F8
3F0000F0
1F8001F0
1FE003E0
1DF80FC0
1CFFFF80
183FFE00
0007E000
ENDCHAR

STARTCHAR Scommaaccent
ENCODING 170
SWIDTH 660 0
DWIDTH 33 0
BBX 31 46 2 -11
BITMAP
003F8000
01FFF180
03FFFDC0
0FC07FC0
0F001FC0
1E0007C0
3C0003E0
3C0001E0
3C0001E0
3C0000E0
3E000070
3F000070
1F800000
1FE00000
0FFC0000
07FFC000
03FFF800
00FFFF00
001FFF80
0003FFE0
00003FF0
00000FF0
000003F8
700000F8
700000F8
38000078
38000078
3C000078
3E0000F8
3F0000F0
1F8001F0
1FC003E0
1DF00FC0
1CFFFF00
183FFC00
0003C000
00000000
00030000
0007C000
0007C000
0007C000
0000C000
0000C000
00018000
00030000
00060000
ENDCHAR

STARTCHAR Tcaron
ENCODING 171
SWIDTH 620 0
DWIDTH 31 0
BBX 35 42 -2 0
BITMAP
001C078000
000FBE0000
0007FC0000
0001F00000
0000E00000
0000000000
0000000000
0600000C00
07FFFFFE00
0FFFFFFE00
0FE1F87E00
1F01F01F00
1E01F00F00
1C01F00700
3801F00380
3801F00380
3001F00180
0001F00000
0001F00000
0001F00000
0001F00000
0001F00000
0001F00000
0001F00000
0001F00000
0001F00000
0001F00000
0001F00000
0001F00000
0001F00000
0001F00000
0001F00000
0001F00000
0001F00000
0001F00000
0001F00000
0001F00000
0001F00000
0001F00000
0003F80000
001FFF0000
001FFF0000
ENDCHAR

STARTCHAR Zacute
ENCODING 172
SWIDTH 640 0
DWIDTH 32 0
BBX 33 43 0 0
BITMAP
0000380000
0000FC0000
0001F80000
0007F80000
000FC00000
0018000000
0000000000
0000000000
0000000000
03FFFFFC00
07FFFFFC00
07FFFFF800
07E001F800
0F8003F000
0E0003E000
1C0007C000
1C000FC000
38001F8000
10001F0000
00003E0000
00007E0000
0000FC0000
0001F80000
0001F00000
0003E00000
0007E00000
000FC00000
000F800000
001F000000
003F000000
007E000000
007C000000
00F8000700
01F8000E00
03F0000E00
07E0001C00
07C0003C00
0FC0007C00
1F8000F800
3F0007F800
3FFFFFF800
7FFFFFF000
7FFFFFF000
ENDCHAR

STARTCHAR hyphen
ENCODING 173
SWIDTH 400 0
DWIDTH 20 0
BBX 18 3 1 11
BITMAP
3FFF00
3FFF00
3FFF00
ENDCHAR

STARTCHAR Zcaron
ENCODING 174
SWIDTH 640 0
DWIDTH 32 0
BBX 33 42 0 0
BITMAP
0030060000
003E3E0000
000FF80000
0007F00000
0001C00000
0000800000
0000000000
0000000000
03FFFFFC00
07FFFFFC00
07FFFFF800
07E001F800
0F8003F000
0E0003E000
1C0007C000
1C000FC000
38001F8000
10001F0000
00003E0000
00007E0000
0000FC0000
0001F80000
0001F00000
0003E00000
0007E00000
000FC00000
000F800000
001F000000
003F000000
007E000000
007C000000
00F8000700
01F8000E00
03F0000E00
07E0001C00
07C0003C00
0FC0007C00
1F8000F800
3F0007F800
3FFFFFF800
7FFFFFF000
7FFFFFF000
ENDCHAR

STARTCHAR Zdotaccent
ENCODING 175
SWIDTH 640 0
DWIDTH 32 0
BBX 34 42 -1 0
BITMAP
0001E00000
0003F00000
0003F00000
0003F00000
0003F00000
0000C00000
0000000000
0000000000
03FFFFFC00
03FFFFFC00
07FFFFFC00
07E000F800
078001F000
0F0003F000
0E0007E000
1C0007C000
18000F8000
18001F8000
00003F0000
00007E0000
00007C0000
0000FC0000
0001F80000
0003F00000
0003E00000
0007E00000
000FC00000
001F800000
001F000000
003E000000
007E000000
00FC000700
01F8000700
01F0000E00
03F0000E00
07E0001E00
0FC0003C00
0F8000FC00
1F8003F800
3FFFFFF800
3FFFFFF800
3FFFFFF000
ENDCHAR

STARTCHAR degree
ENCODING 176
SWIDTH 400 0
DWIDTH 20 0
BBX 17 13 1 22
BITMAP
03E000
0FF800
1E3C00
180E00
380E00
300600
300600
300600
380E00
180C00
1E3C00
0FF800
03E000
ENDCHAR

STARTCHAR aogonek
ENCODING 177
SWIDTH 580 0
DWIDTH 29 0
BBX 30 33 0 -8
BITMAP
003FC000
01FFF000
03E0FC00
07807C00
0F803E00
0F001E00
0F001E00
0F001E00
0E001E00
04001E00
00001E00
000FFE00
007FFE00
03FC1E00
0FC01E00
1F001E00
1E001E00
3C001E00
3C001E00
3C003E00
3E007E00
3E01FE00
1F87DF00
1FFF0F00
0FFE07F0
03F003F0
00000600
00000600
00000C00
00000C00
00000E30
00000FE0
00000780
ENDCHAR

STARTCHAR ogonek
ENCODING 178
SWIDTH 320 0
DWIDTH 16 0
BBX 12 7 2 -7
BITMAP
0800
1800
3000
3000
38C0
3F80
1E00
ENDCHAR

STARTCHAR lslash
ENCODING 179
SWIDTH 320 0
DWIDTH 16 0
BBX 16 36 0 0
BITMAP
00C0
07C0
3FC0
3FC0
03C0
03C0
03C0
03C0
03C0
03C0
03C0
03C0
03C4
03CC
03DC
03F8
03F0
03C0
03C0
07C0
0FC0
3FC0
33C0
23C0
03C0
03C0
03C0
03C0
03C0
03C0
03C0
03C0
03C0
07E0
3FFC
3FFC
ENDCHAR

STARTCHAR acute
ENCODING 180
SWIDTH 340 0
DWIDTH 17 0
BBX 13 5 2 29
BITMAP
01E0
03F0
0FE0
1FC0
3C00
ENDCHAR

STARTCHAR lcaron
ENCODING 181
SWIDTH 357 0
DWIDTH 18 0
BBX 20 36 0 0
BITMAP
00C700
07CF80
3FCFC0
3FCFC0
03C7C0
03C0C0
03C0C0
03C180
03C380
03C700
03CE00
03C400
03C000
03C000
03C000
03C000
03C000
03C000
03C000
03C000
03C000
03C000
03C000
03C000
03C000
03C000
03C000
03C000
03C000
03C000
03C000
03C000
03C000
07E000
3FFE00
3FFE00
ENDCHAR

STARTCHAR sacute
ENCODING 182
SWIDTH 520 0
DWIDTH 26 0
BBX 24 36 1 -1
BITMAP
000F00
001F00
007F00
00FE00
01E000
000000
000000
000000
000000
000000
01FC00
07FFE0
0F8FE0
1E03E0
3C01F0
3C00F0
3C0070
3E0030
3F0030
1FC000
0FF800
07FE00
01FFC0
007FE0
001FF0
0003F8
1000FC
70007C
38003C
3C003C
3E003C
1E0038
1F8078
0FE1F0
0DFFE0
007F80
ENDCHAR

STARTCHAR caron
ENCODING 183
SWIDTH 420 0
DWIDTH 21 0
BBX 17 5 2 28
BITMAP
780F00
1F7C00
0FF800
03E000
01C000
ENDCHAR

STARTCHAR commaaccent
ENCODING 184
SWIDTH 333 0
DWIDTH 17 0
BBX 9 9 4 -11
BITMAP
3C00
3E00
3E00
3E00
0600
0600
0C00
1800
3000
ENDCHAR

STARTCHAR scaron
ENCODING 185
SWIDTH 520 0
DWIDTH 26 0
BBX 24 36 1 -1
BITMAP
040000
0701C0
03EF80
01FF00
007C00
003800
000000
000000
000000
000000
01FC00
07FFE0
0F8FE0
1E03E0
3C01F0
3C00F0
3C0070
3E0030
3F0030
1FC000
0FF800
07FE00
01FFC0
007FE0
001FF0
0003F8
1000FC
70007C
38003C
3C003C
3E003C
1E0038
1F8078
0FE1F0
0DFFE0
007F80
ENDCHAR

STARTCHAR scommaaccent
ENCODING 186
SWIDTH 520 0
DWIDTH 26 0
BBX 24 36 1 -11
BITMAP
01FC00
07FF60
0F8FE0
1E03E0
3C01F0
3C00F0
3C0070
3E0030
3F0030
1FE000
0FF800
07FF00
01FFC0
007FE0
001FF0
0003F8
1000FC
70007C
38003C
3C003C
3E003C
1F0038
1F8078
0FE1F0
0CFFE0
003F80
000000
001800
003E00
003E00
003E00
000600
000600
000C00
001800
003000
ENDCHAR

STARTCHAR tcaron
ENCODING 187
SWIDTH 398 0
DWIDTH 20 0
BBX 21 37 0 -1
BITMAP
0001C0
0003E0
0003E0
0003E0
00C060
00C060
00C0C0
01C180
01C300
03C200
07C000
0FC000
3FFFC0
3FFFC0
03C000
03C000
03C000
03C000
03C000
03C000
03C000
03C000
03C000
03C000
03C000
03C000
03C000
03C000
03C000
03C000
03C000
03C000
03E020
03E0E0
01FFE0
00FF80
003C00
ENDCHAR

STARTCHAR zacute
ENCODING 188
SWIDTH 480 0
DWIDTH 24 0
BBX 26 35 -1 0
BITMAP
0001C000
0007C000
000FC000
003F8000
007C0000
00C00000
00000000
00000000
00000000
00000000
00000000
03FFFF00
07FFFF00
07E03E00
0F007C00
0E00FC00
1C00F800
1C01F000
1803E000
0007C000
000FC000
000F8000
001F0000
003E0000
007C0000
00F80000
01F80300
01F00300
03E00700
07C00700
0F800E00
1F003E00
3F01FE00
3FFFFC00
3FFFFC00
ENDCHAR

STARTCHAR hungarumlaut
ENCODING 189
SWIDTH 380 0
DWIDTH 19 0
BBX 16 8 3 27
BITMAP
060C
0F1C
0E3C
0E38
1C30
1860
3060
20C0
ENDCHAR

STARTCHAR zcaron
ENCODING 190
SWIDTH 480 0
DWIDTH 24 0
BBX 26 34 -1 0
BITMAP
03803000
01F1F000
00FFC000
003F8000
000E0000
00000000
00000000
00000000
00000000
00000000
03FFFF00
07FFFF00
07E03E00
0F007C00
0E00FC00
1C00F800
1C01F000
1803E000
0007C000
000FC000
000F8000
001F0000
003E0000
007C0000
00F80000
01F80300
01F00300
03E00700
07C00700
0F800E00
1F003E00
3F01FE00
3FFFFC00
3FFFFC00
ENDCHAR

STARTCHAR zdotaccent
ENCODING 191
SWIDTH 480 0
DWIDTH 24 0
BBX 26 34 -1 0
BITMAP
001E0000
003F0000
003F0000
003F0000
003F0000
000C0000
00000000
00000000
00000000
00000000
07FFFF00
07FFFF00
07C03E00
0F007C00
0E00F800
1C01F800
1801F000
1803E000
0007C000
000F8000
001F0000
003F0000
003E0000
007C0000
00F80000
01F00300
03E00300
07E00700
07C00E00
0F800E00
1F003E00
3E01FC00
3FFFFC00
3FFFFC00
ENDCHAR

STARTCHAR Racute
ENCODING 192
SWIDTH 720 0
DWIDTH 36 0
BBX 37 43 1 0
BITMAP
00000E0000
00003F0000
00007E0000
0000FE0000
0003F00000
0002000000
0000000000
0000000000
0000000000
3FFFFF0000
3FFFFFE000
07FFFFF800
03E000FC00
03E0007E00
03E0003E00
03E0001F00
03E0001F00
03E0001F00
03E0001F00
03E0001F00
03E0001F00
03E0003E00
03E0003E00
03E000FC00
03E003F800
03FFFFF000
03FFFF8000
03E1F80000
03E0F80000
03E07C0000
03E03E0000
03E03F0000
03E01F8000
03E00FC000
03E007C000
03E003E000
03E003F000
03E001F800
03E000FC00
03E0007E00
03F0007F00
3FFE003FE0
3FFE001FE0
ENDCHAR

STARTCHAR Aacute
ENCODING 193
SWIDTH 680 0
DWIDTH 34 0
BBX 36 43 -1 0
BITMAP
00001E0000
00007E0000
0000FE0000
0001FC0000
0007C00000
0004000000
0000000000
0000000000
0000000000
0000F00000
0000F80000
0001F80000
0001F80000
0003FC0000
0003FC0000
00033E0000
00073E0000
00071E0000
00061F0000
000E1F0000
000C0F0000
001C0F8000
001C0F8000
001807C000
003807C000
003807C000
007003E000
007003E000
007FFFE000
00FFFFF000
00E001F000
00C000F000
01C000F800
01C000F800
0380007C00
0380007C00
0380007C00
0700003E00
0700003E00
0F00003F00
1F00003F80
7FE001FFE0
7FE001FFE0
ENDCHAR

STARTCHAR Acircumflex
ENCODING 194
SWIDTH 680 0
DWIDTH 34 0
BBX 36 43 -1 0
BITMAP
0000600000
0000F00000
0003FC0000
0007FE0000
001E078000
0018018000
0000000000
0000000000
0000000000
0000F00000
0000F80000
0001F80000
0001F80000
0003FC0000
0003FC0000
00033E0000
00073E0000
00071E0000
00061F0000
000E1F0000
000C0F0000
001C0F8000
001C0F8000
001807C000
003807C000
003807C000
007003E000
007003E000
007FFFE000
00FFFFF000
00E001F000
00C000F000
01C000F800
01C000F800
0380007C00
0380007C00
0380007C00
0700003E00
0700003E00
0F00003F00
1F00003F80
7FE001FFE0
7FE001FFE0
ENDCHAR

STARTCHAR Abreve
ENCODING 195
SWIDTH 680 0
DWIDTH 34 0
BBX 36 42 -1 0
BITMAP
003801C000
001F078000
000FFF0000
0007FE0000
0001F80000
0000000000
0000000000
0000000000
0000F00000
0000F80000
0001F80000
0001F80000
0003FC0000
0003FC0000
00033E0000
00073E0000
00071E0000
00061F0000
000E1F0000
000C0F0000
001C0F8000
001C0F8000
001807C000
003807C000
003807C000
007003E000
007003E000
007FFFE000
00FFFFF000
00E001F000
00C000F000
01C000F800
01C000F800
0380007C00
0380007C00
0380007C00
0700003E00
0700003E00
0F00003F00
1F00003F80
7FE001FFE0
7FE001FFE0
ENDCHAR

STARTCHAR Adieresis
ENCODING 196
SWIDTH 680 0
DWIDTH 34 0
BBX 36 42 -1 0
BITMAP
000F0F0000
001F8F8000
001F9F8000
001F9F8000
000F0F8000
0006060000
0000000000
0000000000
0000F00000
0000F80000
0001F80000
0001F80000
0003FC0000
0003FC0000
00033C0000
00073E0000
00071E0000
00061F0000
000E1F0000
000E0F0000
001C0F8000
001C0F8000
0018078000
003807C000
003807C000
003003E000
007003E000
007FFFE000
00FFFFF000
00E001F000
00E000F000
01C000F800
01C000F800
0180007C00
0380007C00
0380007C00
0700003E00
0700003E00
0F00003F00
0F80003F80
7FE001FFE0
7FE001FFE0
ENDCHAR

STARTCHAR Lacute
ENCODING 197
SWIDTH 600 0
DWIDTH 30 0
BBX 32 43 0 0
BITMAP
00007800
0001F800
0003F800
0007F000
001F0000
00100000
00000000
00000000
00000000
3FFE0000
3FFE0000
03F00000
03E00000
03E00000
03E00000
03E00000
03E00000
03E00000
03E00000
03E00000
03E00000
03E00000
03E00000
03E00000
03E00000
03E00000
03E00000
03E00000
03E00000
03E00000
03E00000
03E00000
03E0000C
03E0001C
03E00018
03E00038
03E00078
03E000F0
03E001F0
03E00FF0
07FFFFE0
3FFFFFE0
3FFFFFE0
ENDCHAR

STARTCHAR Cacute
ENCODING 198
SWIDTH 740 0
DWIDTH 37 0
BBX 36 44 1 -1
BITMAP
00001E0000
00007E0000
0000FE0000
0001FC0000
0007C00000
0000000000
0000000000
0000000000
0000FC0000
000FFF8E00
001FFFEE00
007F01FE00
00FC007E00
01F0001F00
03E0000F00
07C0000F00
07C0000700
0F80000380
0F80000380
1F00000180
1F00000180
1F00000000
3E00000000
3E00000000
3E00000000
3E00000000
3E00000000
3E00000000
3E00000000
3F00000000
3F00000000
1F00000000
1F00000000
1F80000000
0F800000C0
0FC00001C0
07E00003C0
03F0000780
03F8000F00
01FC003E00
007F81FC00
003FFFF000
000FFFC000
0001FE0000
ENDCHAR

STARTCHAR Ccedilla
ENCODING 199
SWIDTH 740 0
DWIDTH 37 0
BBX 36 45 1 -10
BITMAP
0000FC0000
000FFF8C00
003FFFEE00
007F01FE00
00FC007E00
01F0003E00
03E0001F00
07C0000F00
07C0000700
0F80000780
0F80000380
1F00000380
1F00000180
1F00000000
3E00000000
3E00000000
3E00000000
3E00000000
3E00000000
3E00000000
3E00000000
3F00000000
3F00000000
1F00000000
1F00000000
1F80000000
0F80000080
0FC00001C0
07E0000380
03F0000700
03F8001F00
01FC003C00
00FF81F800
003FFFF000
000FFFC000
0003FE0000
0001800000
0001800000
0001F80000
00001C0000
00000C0000
00020C0000
00070C0000
00071C0000
0001F00000
ENDCHAR

STARTCHAR Ccaron
ENCODING 200
SWIDTH 740 0
DWIDTH 37 0
BBX 36 44 1 -1
BITMAP
0000008000
001E038000
000F9F0000
0003FC0000
0001F80000
0000600000
0000000000
0000000000
0000FC0000
000FFF8E00
001FFFEE00
007F01FE00
00FC007E00
01F0001F00
03E0000F00
07C0000F00
07C0000700
0F80000380
0F80000380
1F00000180
1F00000180
1F00000000
3E00000000
3E00000000
3E00000000
3E00000000
3E00000000
3E00000000
3E00000000
3F00000000
3F00000000
1F00000000
1F00000000
1F80000000
0F800000C0
0FC00001C0
07E00003C0
03F0000780
03F8000F00
01FC003E00
007F81FC00
003FFFF000
000FFFC000
0001FE0000
ENDCHAR

STARTCHAR Eacute
ENCODING 201
SWIDTH 720 0
DWIDTH 36 0
BBX 36 43 1 0
BITMAP
00001C0000
00003E0000
0000FE0000
0001FC0000
0003E00000
0004000000
0000000000
0000000000
0000000000
3FFFFFF800
3FFFFFFC00
07FFFFFC00
03E0007C00
03E0001E00
03E0000E00
03E0000700
03E0000700
03E0000300
03E00C0200
03E00C0000
03E00C0000
03E01C0000
03E01C0000
03E07C0000
03FFFC0000
03FFFC0000
03E07C0000
03E01C0000
03E01C0000
03E00C0000
03E00C0000
03E00C0000
03E00C01C0
03E00001C0
03E0000380
03E0000780
03E0000700
03E0000F00
03E0003F00
03E000FE00
07FFFFFE00
3FFFFFFE00
3FFFFFFC00
ENDCHAR

STARTCHAR Eogonek
ENCODING 202
SWIDTH 720 0
DWIDTH 36 0
BBX 36 41 0 -7
BITMAP
3FFFFFFC00
3FFFFFFE00
07FFFFFE00
03E0003E00
03E0000F00
03E0000700
03E0000380
03E0000380
03E0000180
03E0060100
03E0060000
03E0060000
03E00E0000
03E00E0000
03E03E0000
03FFFE0000
03FFFE0000
03E03E0000
03E00E0000
03E00E0000
03E0060000
03E0060000
03E0060080
03E00600E0
03E00001C0
03E00001C0
03E0000380
03E0000780
03E0000F80
03E0001F00
03E000FF00
07FFFFFF00
3FFFFFFE00
3FFFFFFE00
0000004000
000000C000
0000018000
0000018000
000001C600
000001FC00
000000F000
ENDCHAR

STARTCHAR Edieresis
ENCODING 203
SWIDTH 720 0
DWIDTH 36 0
BBX 36 42 1 0
BITMAP
000F0F0000
000F8F8000
001F9F8000
001F9F8000
000F8F8000
0006060000
0000000000
0000000000
3FFFFFF800
3FFFFFFC00
07FFFFFC00
03E0007C00
03E0001E00
03E0000E00
03E0000700
03E0000700
03E0000300
03E00C0200
03E00C0000
03E00C0000
03E01C0000
03E01C0000
03E07C0000
03FFFC0000
03FFFC0000
03E07C0000
03E01C0000
03E00C0000
03E00C0000
03E00C0000
03E00C0000
03E00C01C0
03E00001C0
03E0000380
03E0000780
03E0000700
03E0000F00
03E0003F00
03E000FE00
07FFFFFE00
3FFFFFFE00
3FFFFFFC00
ENDCHAR

STARTCHAR Ecaron
ENCODING 204
SWIDTH 720 0
DWIDTH 36 0
BBX 36 42 1 0
BITMAP
001C038000
000F1F0000
0007FE0000
0001F80000
0000F00000
0000000000
0000000000
0000000000
3FFFFFF800
3FFFFFFC00
07FFFFFC00
03E0007C00
03E0001E00
03E0000E00
03E0000700
03E0000700
03E0000300
03E00C0200
03E00C0000
03E00C0000
03E01C0000
03E01C0000
03E07C0000
03FFFC0000
03FFFC0000
03E07C0000
03E01C0000
03E01C0000
03E00C0000
03E00C0000
03E00C0000
03E00C01C0
03E00001C0
03E0000380
03E0000780
03E0000700
03E0000F00
03E0003F00
03E000FE00
07FFFFFE00
3FFFFFFE00
3FFFFFFC00
ENDCHAR

STARTCHAR Iacute
ENCODING 205
SWIDTH 340 0
DWIDTH 17 0
BBX 16 43 1 0
BITMAP
00F0
01F8
03F0
0FE0
1F00
2000
0000
0000
0000
7FFC
7FFC
0FE0
07C0
07C0
07C0
07C0
07C0
07C0
07C0
07C0
07C0
07C0
07C0
07C0
07C0
07C0
07C0
07C0
07C0
07C0
07C0
07C0
07C0
07C0
07C0
07C0
07C0
07C0
07C0
07C0
0FE0
7FFC
7FFC
ENDCHAR

STARTCHAR Icircumflex
ENCODING 206
SWIDTH 340 0
DWIDTH 17 0
BBX 17 43 0 0
BITMAP
008000
03E000
07F000
1FFC00
3C1F00
200200
000000
000000
000000
3FFE00
3FFE00
07F000
03E000
03E000
03E000
03E000
03E000
03E000
03E000
03E000
03E000
03E000
03E000
03E000
03E000
03E000
03E000
03E000
03E000
03E000
03E000
03E000
03E000
03E000
03E000
03E000
03E000
03E000
03E000
03E000
07F000
3FFE00
3FFE00
ENDCHAR

STARTCHAR Dcaron
ENCODING 207
SWIDTH 800 0
DWIDTH 40 0
BBX 39 42 0 0
BITMAP
000600C000
0007C7C000
0001FF0000
0000FE0000
0000380000
0000100000
0000000000
0000000000
3FFFFC0000
3FFFFFE000
07FFFFF800
03E001FC00
03E0007F00
03E0001F80
03E0000FC0
03E00007C0
03E00003E0
03E00003E0
03E00001F0
03E00001F0
03E00001F8
03E00000F8
03E00000F8
03E00000F8
03E00000F8
03E00000F8
03E00000F8
03E00000F8
03E00000F8
03E00001F8
03E00001F0
03E00001F0
03E00001F0
03E00003E0
03E00007E0
03E00007C0
03E0000F80
03E0003F00
03E000FE00
07FFFFFC00
3FFFFFF000
3FFFFF0000
ENDCHAR

STARTCHAR Dcroat
ENCODING 208
SWIDTH 800 0
DWIDTH 40 0
BBX 39 34 0 0
BITMAP
3FFFFC0000
3FFFFFE000
07FFFFF800
03E001FC00
03E0007F00
03E0001F80
03E0000FC0
03E00007C0
03E00003E0
03E00003E0
03E00001F0
03E00001F0
03E00001F8
03E00000F8
03E00000F8
03E00000F8
3FFFF800F8
3FFFF800F8
03E00000F8
03E00000F8
03E00000F8
03E00001F8
03E00001F0
03E00001F0
03E00003F0
03E00003E0
03E00007E0
03E0000FC0
03E0000F80
03E0003F00
03E000FE00
07FFFFFC00
3FFFFFF000
3FFFFF0000
ENDCHAR

STARTCHAR Nacute
ENCODING 209
SWIDTH 740 0
DWIDTH 37 0
BBX 37 43 0 0
BITMAP
00001E0000
00003F0000
0000FE0000
0001FC0000
0003E00000
0004000000
0000000000
0000000000
0000000000
3FF800FFE0
3FF800FFE0
07FC001F00
03FC000E00
03BE000E00
03BF000E00
039F000E00
038F800E00
038FC00E00
0387C00E00
0387E00E00
0383E00E00
0381F00E00
0381F80E00
0380F80E00
03807C0E00
03807C0E00
03803E0E00
03803F0E00
03801F0E00
03800F8E00
03800FCE00
038007CE00
038003EE00
038003EE00
038001FE00
038001FE00
038000FE00
0380007E00
0380007E00
0380003E00
07C0003E00
3FF8001E00
3FF8000E00
ENDCHAR

STARTCHAR Ncaron
ENCODING 210
SWIDTH 740 0
DWIDTH 37 0
BBX 37 42 0 0
BITMAP
001E038000
000F9F8000
0003FE0000
0001F80000
0000700000
0000000000
0000000000
0000000000
3FF800FFE0
3FF800FFE0
07FC001F00
03FC000E00
03BE000E00
03BF000E00
039F000E00
038F800E00
038FC00E00
0387C00E00
0387E00E00
0383E00E00
0381F00E00
0381F80E00
0380F80E00
03807C0E00
03807C0E00
03803E0E00
03803F0E00
03801F0E00
03800F8E00
03800FCE00
038007CE00
038003EE00
038003EE00
038001FE00
038001FE00
038000FE00
0380007E00
0380007E00
0380003E00
07C0003E00
3FF8001E00
3FF8000E00
ENDCHAR

STARTCHAR Oacute
ENCODING 211
SWIDTH 800 0
DWIDTH 40 0
BBX 39 44 0 -1
BITMAP
00000F0000
00001F8000
00007F0000
0000FE0000
0003E00000
0000000000
0000000000
0000000000
0000FE0000
0007FFE000
001FFFF800
007F00FC00
00FC003F00
01F0001F80
03E0000F80
07C00007C0
07C00003E0
0F800003E0
0F800001F0
1F000001F0
1F000001F0
1F000001F8
3F000000F8
3E000000F8
3E000000F8
3E000000F8
3E000000F8
3E000000F8
3E000000F8
3E000000F8
3F000001F8
1F000001F0
1F000001F0
1F000001F0
0F800003E0
0F800003E0
07C00007C0
03E0000FC0
03F0001F80
01F8003F00
00FC007E00
003F83F800
000FFFE000
0003FF8000
ENDCHAR

STARTCHAR Ocircumflex
ENCODING 212
SWIDTH 800 0
DWIDTH 40 0
BBX 39 44 0 -1
BITMAP
0000380000
00007C0000
0001FF0000
0003EF8000
000F01E000
0000000000
0000000000
0000000000
0000FE0000
0007FFE000
001FFFF800
007F00FC00
00FC003F00
01F0001F80
03E0000F80
07C00007C0
07C00003E0
0F800003E0
0F800001F0
1F000001F0
1F000001F0
1F000001F8
3F000000F8
3E000000F8
3E000000F8
3E000000F8
3E000000F8
3E000000F8
3E000000F8
3E000000F8
3F000001F8
1F000001F0
1F000001F0
1F000001F0
0F800003E0
0F800003E0
07C00007C0
03E0000FC0
03F0001F80
01F8003F00
00FC007E00
003F83F800
000FFFE000
0003FF8000
ENDCHAR

STARTCHAR Ohungarumlaut
ENCODING 213
SWIDTH 800 0
DWIDTH 40 0
BBX 39 45 0 -1
BITMAP
0000306000
000078E000
000071E000
0000F1C000
0000E18000
0000C30000
0001830000
0001060000
0000000000
0000FE0000
0007FFE000
001FFFF800
007F00FC00
00FC003F00
01F0001F80
03E0000F80
07C00007C0
07C00003E0
0F800003E0
0F800001F0
1F000001F0
1F000001F0
1F000001F8
3F000000F8
3E000000F8
3E000000F8
3E000000F8
3E000000F8
3E000000F8
3E000000F8
3E000000F8
3F000001F8
1F000001F0
1F000001F0
1F000001F0
0F800003E0
0F800003E0
07C00007C0
03E0000FC0
03F0001F80
01F8003F00
00FC007E00
003F83F800
000FFFE000
0003FF8000
ENDCHAR

STARTCHAR Odieresis
ENCODING 214
SWIDTH 800 0
DWIDTH 40 0
BBX 38 44 1 -1
BITMAP
0007878000
0007C7C000
000FCFC000
000FCFC000
000FCFC000
0007878000
0000000000
0000000000
0000FE0000
0007FFC000
001FFFF000
007E00F800
00F8007E00
01F0001F00
03E0000F00
07C0000F80
0FC00007C0
0F800007C0
1F800003E0
1F000003E0
1F000003E0
3F000003F0
3E000001F0
3E000001F0
3E000001F0
3E000001F0
3E000001F0
3E000001F0
3E000001F0
3E000001F0
3F000001F0
1F000003F0
1F000003E0
1F000003E0
0F800007C0
0F800007C0
07C0000F80
07C0000F80
03E0001F00
01F0003E00
00FC00FC00
003F87F000
001FFFE000
0003FF0000
ENDCHAR

STARTCHAR multiply
ENCODING 215
SWIDTH 600 0
DWIDTH 30 0
BBX 24 20 3 7
BITMAP
180018
3C003C
3E007C
1F00F8
0F81F0
07C3E0
03E7C0
01FF80
00FF00
007E00
007E00
00FF00
01FF80
03E7C0
07C3E0
0F81F0
1F00F8
3E007C
3C003C
180018
ENDCHAR

STARTCHAR Rcaron
ENCODING 216
SWIDTH 720 0
DWIDTH 36 0
BBX 37 42 1 0
BITMAP
000C018000
000F8F8000
0003FE0000
0001FC0000
0000700000
0000200000
0000000000
0000000000
3FFFFF0000
3FFFFFE000
07FFFFF800
03E000FC00
03E0007E00
03E0003E00
03E0001F00
03E0001F00
03E0001F00
03E0001F00
03E0001F00
03E0001F00
03E0003E00
03E0003E00
03E000FC00
03E003F800
03FFFFF000
03FFFF8000
03E1F80000
03E0F80000
03E07C0000
03E03E0000
03E03F0000
03E01F8000
03E00FC000
03E007C000
03E003E000
03E003F000
03E001F800
03E000FC00
03E0007E00
03F0007F00
3FFE003FE0
3FFE001FE0
ENDCHAR

STARTCHAR Uring
ENCODING 217
SWIDTH 780 0
DWIDTH 39 0
BBX 39 47 0 -1
BITMAP
0000380000
00007E0000
0000C60000
0001830000
0001830000
0001830000
0001830000
0000C60000
00007E0000
0000380000
0000000000
0000000000
3FFE003FF8
3FFE003FF8
07F00007C0
03E0000380
03E0000380
03E0000380
03E0000380
03E0000380
03E0000380
03E0000380
03E0000380
03E0000380
03E0000380
03E0000380
03E0000380
03E0000380
03E0000380
03E0000380
03E0000380
03E0000380
03E0000380
03E0000380
03E0000380
03E0000380
03E0000380
01E0000780
01F0000700
01F0000700
00F8000E00
00FC001E00
007E007C00
003F81F800
001FFFF000
0007FFC000
0001FF0000
ENDCHAR

STARTCHAR Uacute
ENCODING 218
SWIDTH 780 0
DWIDTH 39 0
BBX 39 44 0 -1
BITMAP
00000F0000
00001F8000
00003F0000
0000FE0000
0001F00000
0002000000
0000000000
0000000000
0000000000
3FFE003FF8
3FFE003FF8
07F00007C0
03E0000380
03E0000380
03E0000380
03E0000380
03E0000380
03E0000380
03E0000380
03E0000380
03E0000380
03E0000380
03E0000380
03E0000380
03E0000380
03E0000380
03E0000380
03E0000380
03E0000380
03E0000380
03E0000380
03E0000380
03E0000380
03E0000380
01E0000380
01F0000700
01F0000700
00F8000F00
00FC001E00
007E007C00
003F81F800
001FFFF000
0007FFC000
0001FF0000
ENDCHAR

STARTCHAR Uhungarumlaut
ENCODING 219
SWIDTH 780 0
DWIDTH 39 0
BBX 39 45 0 -1
BITMAP
0000306000
000038E000
000070E000
000071C000
0000E18000
0000C38000
0001830000
0001020000
0000000000
0000000000
3FFE003FF8
3FFE003FF8
07F00007C0
03E0000380
03E0000380
03E0000380
03E0000380
03E0000380
03E0000380
03E0000380
03E0000380
03E0000380
03E0000380
03E0000380
03E0000380
03E0000380
03E0000380
03E0000380
03E0000380
03E0000380
03E0000380
03E0000380
03E0000380
03E0000380
03E0000380
01E0000380
01F0000700
01F0000700
00F8000F00
00FC001E00
007E007C00
003F81F800
001FFFF000
0007FFC000
0001FF0000
ENDCHAR

STARTCHAR Udieresis
ENCODING 220
SWIDTH 780 0
DWIDTH 39 0
BBX 39 43 0 -1
BITMAP
0003C3C000
0007E3C000
0007E7E000
0007E7E000
0007C3C000
0001818000
0000000000
0000000000
3FFF003FF8
3FFF003FF8
07F00007C0
03E0000380
03E0000380
03E0000380
03E0000380
03E0000380
03E0000380
03E0000380
03E0000380
03E0000380
03E0000380
03E0000380
03E0000380
03E0000380
03E0000380
03E0000380
03E0000380
03E0000380
03E0000380
03E0000380
03E0000380
03E0000380
03E0000380
01E0000380
01F0000700
01F0000700
00F8000F00
00FC001E00
007E003C00
003FC1F800
001FFFF000
0007FFE000
0000FF0000
ENDCHAR

STARTCHAR Yacute
ENCODING 221
SWIDTH 640 0
DWIDTH 32 0
BBX 35 43 -2 0
BITMAP
00001C0000
00007E0000
0000FC0000
0003F80000
0007C00000
0000000000
0000000000
0000000000
0000000000
3FFC01FF80
3FFC01FF80
0FE0003E00
07E0003C00
03E0003800
01F0007000
01F8007000
00F800E000
00FC01E000
007C01C000
007E038000
003E038000
001F070000
001F070000
000F8E0000
000F9E0000
0007DC0000
0007F80000
0003F80000
0003F00000
0001F00000
0001F00000
0001F00000
0001F00000
0001F00000
0001F00000
0001F00000
0001F00000
0001F00000
0001F00000
0001F00000
0003F80000
001FFF0000
001FFF0000
ENDCHAR

STARTCHAR Tcommaaccent
ENCODING 222
SWIDTH 620 0
DWIDTH 31 0
BBX 35 46 -2 -11
BITMAP
0600000C00
0FFFFFFE00
0FFFFFFE00
0FC1F87E00
1F01F01F00
1E01F00F00
1C01F00700
3801F00380
3801F00380
3001F00180
0001F00000
0001F00000
0001F00000
0001F00000
0001F00000
0001F00000
0001F00000
0001F00000
0001F00000
0001F00000
0001F00000
0001F00000
0001F00000
0001F00000
0001F00000
0001F00000
0001F00000
0001F00000
0001F00000
0001F00000
0001F00000
0001F00000
0003F80000
001FFF0000
001FFF0000
0000000000
0000000000
0000C00000
0001F00000
0001F00000
0001F00000
0000300000
0000300000
0000600000
0000C00000
0001800000
ENDCHAR

STARTCHAR germandbls
ENCODING 223
SWIDTH 660 0
DWIDTH 33 0
BBX 32 37 0 -1
BITMAP
0007F800
001FFE00
007C1F00
00F00780
00E00780
01E003C0
01C003C0
03C003C0
03C01F80
03C07F00
03C0F000
03C1C000
3FC3C000
3FC3C000
03C3C000
03C3E000
03C1F800
03C1FE00
03C0FF80
03C03FC0
03C00FF0
03C003F8
03C001F8
03C0007C
03C0003C
03C0003E
03C0001E
03C0001E
03C0001E
03C0001E
03CF001C
03CF803C
03CF8038
07CFC078
3FC7F1F0
3FC3FFC0
00007F00
ENDCHAR

STARTCHAR racute
ENCODING 224
SWIDTH 440 0
DWIDTH 22 0
BBX 24 35 0 0
BITMAP
000F80
001F80
003F80
00FE00
01E000
000000
000000
000000
000000
000000
01C1F8
07C3FC
3FCFFC
3FDFFC
03F838
03F000
03E000
03C000
03C000
03C000
03C000
03C000
03C000
03C000
03C000
03C000
03C000
03C000
03C000
03C000
03C000
03C000
07E000
3FFE00
3FFE00
ENDCHAR

STARTCHAR aacute
ENCODING 225
SWIDTH 580 0
DWIDTH 29 0
BBX 30 36 0 -1
BITMAP
0000F000
0003F000
0007F000
000FE000
003C0000
00000000
00000000
00000000
00000000
00000000
003FC000
01FFF000
03E0FC00
07807C00
0F803E00
0F001E00
0F001E00
0F001E00
0E001E00
04001E00
00001E00
000FFE00
00FFFE00
03FC1E00
0FC01E00
1F001E00
1E001E00
3C001E00
3C001E00
3C003E00
3E007E00
3E01FE00
1F87DF00
1FFF8F08
07FE07F8
01F803F8
ENDCHAR

STARTCHAR acircumflex
ENCODING 226
SWIDTH 580 0
DWIDTH 29 0
BBX 30 36 0 -1
BITMAP
00030000
000FC000
001FE000
007FF800
00F03C00
00000400
00000000
00000000
00000000
00000000
003FC000
01FFF000
03E0FC00
07807C00
0F803E00
0F001E00
0F001E00
0F001E00
0E001E00
04001E00
00001E00
000FFE00
00FFFE00
03FC1E00
0FC01E00
1F001E00
1E001E00
3C001E00
3C001E00
3C003E00
3E007E00
3E01FE00
1F87DF00
1FFF8F08
07FE07F8
01F803F8
ENDCHAR

STARTCHAR abreve
ENCODING 227
SWIDTH 580 0
DWIDTH 29 0
BBX 30 36 0 -1
BITMAP
00800000
01C00E00
00F83C00
007FF800
003FF000
000FC000
00000000
00000000
00000000
00000000
003FC000
01FFF000
03E0FC00
07807C00
0F803E00
0F001E00
0F001E00
0F001E00
0E001E00
04001E00
00001E00
000FFE00
00FFFE00
03FC1E00
0FC01E00
1F001E00
1E001E00
3C001E00
3C001E00
3C003E00
3E007E00
3E01FE00
1F87DF00
1FFF8F08
07FE07F8
01F803F8
ENDCHAR

STARTCHAR adieresis
ENCODING 228
SWIDTH 580 0
DWIDTH 29 0
BBX 30 35 0 -1
BITMAP
00787800
007C7C00
00FCFC00
00FCFC00
007C7C00
00303000
00000000
00000000
00000000
007FC000
01FFF000
03E1FC00
07807C00
0F803E00
0F001E00
0F001E00
0F001E00
0E001E00
04001E00
00001E00
000FFE00
00FFFE00
03FC1E00
0FC01E00
1F001E00
1E001E00
3C001E00
3C001E00
3C003E00
3E007E00
3E01FE00
1F07DF00
1FFF8F08
07FE07F8
01F003F8
ENDCHAR

STARTCHAR lacute
ENCODING 229
SWIDTH 300 0
DWIDTH 15 0
BBX 16 42 0 0
BITMAP
0078
01F8
03F8
0FE0
1C00
0000
00C0
03C0
3FC0
3FC0
03C0
03C0
03C0
03C0
03C0
03C0
03C0
03C0
03C0
03C0
03C0
03C0
03C0
03C0
03C0
03C0
03C0
03C0
03C0
03C0
03C0
03C0
03C0
03C0
03C0
03C0
03C0
03C0
03C0
07E0
3FFC
3FFC
ENDCHAR

STARTCHAR cacute
ENCODING 230
SWIDTH 520 0
DWIDTH 26 0
BBX 26 36 1 -1
BITMAP
00078000
000FC000
003F8000
007F0000
00F00000
00000000
00000000
00000000
00000000
00000000
007FC000
01FFF000
03F0F800
07C07C00
0F003E00
1F001E00
1E001F00
3E001E00
3C000C00
3C000000
7C000000
7C000000
7C000000
7C000000
7C000000
7C000000
3C000000
3E000000
3E000200
1F000700
1F000E00
0F801C00
07E07800
03FFF000
00FFC000
003F0000
ENDCHAR

STARTCHAR ccedilla
ENCODING 231
SWIDTH 520 0
DWIDTH 26 0
BBX 26 35 1 -10
BITMAP
003FC000
01FFF000
03F0FC00
07C03E00
0F803F00
1F001F00
1E001F00
3E000F00
3E000600
3C000000
7C000000
7C000000
7C000000
7C000000
7C000000
7C000000
3E000000
3E000000
3E000000
1F000300
1F800700
0FC01E00
07E03C00
03FFF000
00FFE000
003E0000
00300000
003F0000
00478000
00018000
00018000
00C18000
00E18000
00E30000
007E0000
ENDCHAR

STARTCHAR ccaron
ENCODING 232
SWIDTH 520 0
DWIDTH 26 0
BBX 26 36 1 -1
BITMAP
02000000
0380F000
01F7C000
00FF8000
003E0000
001C0000
00000000
00000000
00000000
00000000
007FC000
01FFF000
03F0F800
07C07C00
0F003E00
1F001E00
1E001F00
3E001E00
3C000C00
3C000000
7C000000
7C000000
7C000000
7C000000
7C000000
7C000000
3C000000
3E000000
3E000200
1F000700
1F000E00
0F801C00
07E07800
03FFF000
00FFC000
003F0000
ENDCHAR

STARTCHAR eacute
ENCODING 233
SWIDTH 520 0
DWIDTH 26 0
BBX 25 36 1 -1
BITMAP
00078000
001F8000
003F8000
007F0000
01F00000
00000000
00000000
00000000
00000000
00000000
007F8000
01FFE000
07E1F000
0F807800
0F003C00
1E003C00
3E003E00
3C001E00
3FFFFE00
7FFFFE00
7C000000
7C000000
7C000000
7C000000
7C000000
7C000000
3C000000
3E000000
3E000000
1F000600
1F000E00
0F803C00
07E07800
03FFF000
00FFC000
003F0000
ENDCHAR

STARTCHAR eogonek
ENCODING 234
SWIDTH 520 0
DWIDTH 26 0
BBX 25 32 1 -7
BITMAP
007F8000
01FFE000
07E1F000
0F807800
0F003C00
1E003C00
3E003E00
3C001E00
3FFFFE00
7FFFFE00
7C000000
7C000000
7C000000
7C000000
7C000000
7C000000
3C000000
3E000000
3E000000
1F000600
1F000E00
0F801C00
07E07800
03FFF000
00FFC000
001E0000
00180000
00300000
00300000
0038E000
003F8000
001E0000
ENDCHAR

STARTCHAR edieresis
ENCODING 235
SWIDTH 520 0
DWIDTH 26 0
BBX 25 35 1 -1
BITMAP
03C3C000
07E7E000
07E7E000
07E7E000
03C3C000
01818000
00000000
00000000
00000000
007F8000
01FFE000
07E1F000
0F80F800
1F007800
1E003C00
3E003C00
3C003E00
3FFFFE00
7FFFFE00
7C000000
7C000000
7C000000
7C000000
7C000000
7C000000
3C000000
3E000000
3E000400
1F000E00
1F001C00
0F803C00
07E0F800
03FFE000
00FFC000
003F0000
ENDCHAR

STARTCHAR ecaron
ENCODING 236
SWIDTH 520 0
DWIDTH 26 0
BBX 25 36 1 -1
BITMAP
00002000
0780E000
03F7C000
00FF8000
007E0000
00180000
00000000
00000000
00000000
00000000
007F8000
01FFE000
07E1F000
0F807800
0F003C00
1E003C00
3E003E00
3C001E00
3FFFFE00
7FFFFE00
7C000000
7C000000
7C000000
7C000000
7C000000
7C000000
3C000000
3E000000
3E000000
1F000600
1F000E00
0F803C00
07E07800
03FFF000
00FFC000
003F0000
ENDCHAR

STARTCHAR iacute
ENCODING 237
SWIDTH 300 0
DWIDTH 15 0
BBX 16 34 0 0
BITMAP
0078
01F8
03F8
0FE0
1F00
0000
0000
0000
0000
0000
01C0
0FC0
3FC0
3FC0
03C0
03C0
03C0
03C0
03C0
03C0
03C0
03C0
03C0
03C0
03C0
03C0
03C0
03C0
03C0
03C0
03C0
07E0
3FFC
3FFC
ENDCHAR

STARTCHAR icircumflex
ENCODING 238
SWIDTH 300 0
DWIDTH 15 0
BBX 18 34 -1 0
BITMAP
00C000
03F000
07F800
1FFE00
3C0F00
200000
000000
000000
000000
000000
00E000
07E000
1FE000
1FE000
01E000
01E000
01E000
01E000
01E000
01E000
01E000
01E000
01E000
01E000
01E000
01E000
01E000
01E000
01E000
01E000
01E000
03F000
1FFE00
1FFE00
ENDCHAR

STARTCHAR dcaron
ENCODING 239
SWIDTH 667 0
DWIDTH 33 0
BBX 34 37 1 -1
BITMAP
0000031C00
00001F3E00
0000FF3F00
0000FF3F00
00000F1B00
00000F0300
00000F0700
00000F0600
00000F0C00
00000F1800
00000F3000
003E0F0000
01FF8F0000
03FFEF0000
07E0FF0000
0F803F0000
1F001F0000
1E001F0000
3E000F0000
3C000F0000
3C000F0000
7C000F0000
7C000F0000
7C000F0000
7C000F0000
7C000F0000
7C000F0000
7C000F0000
3C000F0000
3E000F0000
3E000F0000
1F003F0000
0F807F0000
0FC1EF8000
07FFCFF800
01FF0FF800
007C0F8000
ENDCHAR

STARTCHAR dcroat
ENCODING 240
SWIDTH 620 0
DWIDTH 31 0
BBX 30 37 1 -1
BITMAP
00000300
00001F00
0000FF00
0000FF00
00000F00
00000F00
00000F00
001FFFF0
001FFFF0
00000F00
00000F00
003C0F00
01FF8F00
03FFEF00
07E0FF00
0F803F00
1F001F00
1E001F00
3E000F00
3C000F00
3C000F00
7C000F00
7C000F00
7C000F00
7C000F00
7C000F00
7C000F00
7C000F00
3C000F00
3E000F00
3E000F00
1F001F00
0F807F00
0FC1EF80
07FFCFF0
01FF0FF0
007C0FC0
ENDCHAR

STARTCHAR nacute
ENCODING 241
SWIDTH 660 0
DWIDTH 33 0
BBX 34 35 0 0
BITMAP
00003C0000
0000FC0000
0001FC0000
0007F80000
000F800000
0000000000
0000000000
0000000000
0000000000
0000000000
01C07F0000
07C1FFC000
3FC7FFE000
3FCF07E000
03FC01F000
03F001F000
03E000F000
03C000F000
03C000F000
03C000F000
03C000F000
03C000F000
03C000F000
03C000F000
03C000F000
03C000F000
03C000F000
03C000F000
03C000F000
03C000F000
03C000F000
03C000F000
07E001F800
3FFE1FFF00
3FFE1FFF00
ENDCHAR

STARTCHAR ncaron
ENCODING 242
SWIDTH 660 0
DWIDTH 33 0
BBX 34 34 0 0
BITMAP
0038070000
001F3E0000
0007FC0000
0003F00000
0000C00000
0000000000
0000000000
0000000000
0000000000
01C07F0000
07C1FFC000
3FC7FFE000
3FCF07E000
03FC01F000
03F001F000
03E000F000
03C000F000
03C000F000
03C000F000
03C000F000
03C000F000
03C000F000
03C000F000
03C000F000
03C000F000
03C000F000
03C000F000
03C000F000
03C000F000
03C000F000
03C000F000
07E001F800
3FFE1FFF00
3FFE1FFF00
ENDCHAR

STARTCHAR oacute
ENCODING 243
SWIDTH 560 0
DWIDTH 28 0
BBX 26 36 1 -1
BITMAP
0007C000
000FC000
001FC000
007F0000
00F00000
00000000
00000000
00000000
00000000
00000000
007F8000
01FFE000
03E1F800
0F807C00
0F003E00
1F001E00
1E001F00
3E001F00
3C000F00
3C000F80
7C000F80
7C000F80
7C000F80
7C000F80
7C000F80
7C000F80
3C000F80
3C000F00
3E001F00
3E001F00
1E003E00
0F003C00
0F807C00
07E1F800
01FFE000
007F8000
ENDCHAR

STARTCHAR ocircumflex
ENCODING 244
SWIDTH 560 0
DWIDTH 28 0
BBX 26 36 1 -1
BITMAP
000C0000
003F0000
007F8000
01F3E000
03C0F000
00000000
00000000
00000000
00000000
00000000
007F8000
01FFE000
03E1F800
0F807C00
0F003E00
1F001E00
1E001F00
3E001F00
3C000F00
3C000F80
7C000F80
7C000F80
7C000F80
7C000F80
7C000F80
7C000F80
3C000F80
3C000F00
3E001F00
3E001F00
1E003E00
0F003C00
0F807C00
07E1F800
01FFE000
007F8000
ENDCHAR

STARTCHAR ohungarumlaut
ENCODING 245
SWIDTH 560 0
DWIDTH 28 0
BBX 26 37 1 -1
BITMAP
000C3000
001C7000
003C7000
0038E000
0030E000
0060C000
00618000
00410000
00000000
00000000
00000000
007F8000
01FFE000
03E1F800
0F807C00
0F003E00
1F001E00
1E001F00
3E001F00
3C000F00
3C000F80
7C000F80
7C000F80
7C000F80
7C000F80
7C000F80
7C000F80
3C000F80
3C000F00
3E001F00
3E001F00
1E003E00
0F003C00
0F807C00
07E1F800
01FFE000
007F8000
ENDCHAR

STARTCHAR odieresis
ENCODING 246
SWIDTH 560 0
DWIDTH 28 0
BBX 26 35 1 -1
BITMAP
01E1E000
01F1F000
03F3F000
03F3F000
01E1E000
00C0C000
00000000
00000000
00000000
007F8000
01FFE000
03E1F800
07807C00
0F003E00
1F001E00
1E001F00
3E001F00
3C000F00
3C000F80
7C000F80
7C000F80
7C000F80
7C000F80
7C000F80
7C000F80
3C000F80
3C000F00
3E001F00
3E001F00
1E003E00
0F003C00
0F807C00
07E1F800
01FFE000
007F8000
ENDCHAR

STARTCHAR divide
ENCODING 247
SWIDTH 600 0
DWIDTH 30 0
BBX 27 21 1 7
BITMAP
000E0000
001F0000
001F0000
001F0000
000E0000
00000000
00000000
00000000
00000000
3FFFFF80
3FFFFF80
3FFFFF80
00000000
00000000
00000000
00000000
000E0000
001F0000
001F0000
001F0000
000E0000
ENDCHAR

STARTCHAR rcaron
ENCODING 248
SWIDTH 440 0
DWIDTH 22 0
BBX 24 34 0 0
BITMAP
0701E0
03E7C0
01FF00
007E00
003800
000000
000000
000000
000000
01C1F8
07C3FC
3FCFFC
3FDFFC
03F838
03F000
03E000
03C000
03C000
03C000
03C000
03C000
03C000
03C000
03C000
03C000
03C000
03C000
03C000
03C000
03C000
03C000
07E000
3FFE00
3FFE00
ENDCHAR

STARTCHAR uring
ENCODING 249
SWIDTH 680 0
DWIDTH 34 0
BBX 36 38 -1 -1
BITMAP
0000F00000
0001FC0000
00030C0000
0006060000
0006060000
0006060000
00030C0000
0001FC0000
0000F00000
0000000000
0000000000
0000000000
01E0003C00
3FE007FC00
3FE007FC00
03E0007C00
01E0003C00
01E0003C00
01E0003C00
01E0003C00
01E0003C00
01E0003C00
01E0003C00
01E0003C00
01E0003C00
01E0003C00
01E0003C00
01E0003C00
01E0003C00
01E0003C00
01E0003C00
01E0007C00
01F001FC00
00F003FC00
00FC1F3E00
007FFE3FC0
003FF83FC0
000FE03F00
ENDCHAR

STARTCHAR uacute
ENCODING 250
SWIDTH 680 0
DWIDTH 34 0
BBX 36 36 -2 -1
BITMAP
00001E0000
00007E0000
0000FE0000
0001FC0000
0007C00000
0004000000
0000000000
0000000000
0000000000
0000000000
01E0003C00
3FE007FC00
3FE007FC00
03E000FC00
01E0003C00
01E0003C00
01E0003C00
01E0003C00
01E0003C00
01E0003C00
01E0003C00
01E0003C00
01E0003C00
01E0003C00
01E0003C00
01E0003C00
01E0003C00
01E0003C00
01E0003C00
01E0007C00
01F001FC00
00F803FC00
00FC1F3E00
007FFE3FC0
003FF83FC0
000FE03F00
ENDCHAR

STARTCHAR uhungarumlaut
ENCODING 251
SWIDTH 680 0
DWIDTH 34 0
BBX 36 37 -2 -1
BITMAP
0000418000
0000E1C000
0001E38000
0001C38000
0001870000
0003860000
00030C0000
0006080000
0000000000
0000000000
0000000000
01E0003C00
3FE007FC00
3FE007FC00
03E000FC00
01E0003C00
01E0003C00
01E0003C00
01E0003C00
01E0003C00
01E0003C00
01E0003C00
01E0003C00
01E0003C00
01E0003C00
01E0003C00
01E0003C00
01E0003C00
01E0003C00
01E0003C00
01E0007C00
01F001FC00
00F803FC00
00FC1F3E00
007FFE3FC0
003FF83FC0
000FE03F00
ENDCHAR

STARTCHAR udieresis
ENCODING 252
SWIDTH 680 0
DWIDTH 34 0
BBX 36 35 -1 -1
BITMAP
000F0F0000
001F9F8000
001F9F8000
001F9F8000
001F1F8000
0006060000
0000000000
0000000000
0000000000
01E0003C00
3FE007FC00
3FE007FC00
03E000FC00
01E0003C00
01E0003C00
01E0003C00
01E0003C00
01E0003C00
01E0003C00
01E0003C00
01E0003C00
01E0003C00
01E0003C00
01E0003C00
01E0003C00
01E0003C00
01E0003C00
01E0003C00
01E0007C00
01F001FC00
00F803FC00
00FC1F3E00
007FFE3FC0
003FF83FC0
000FE03F00
ENDCHAR

STARTCHAR yacute
ENCODING 253
SWIDTH 540 0
DWIDTH 27 0
BBX 32 46 -3 -11
BITMAP
00007000
0000F800
0003F800
0007F000
000FC000
00180000
00000000
00000000
00000000
00000000
00000000
1FFC0FFC
1FFC0FFC
07E001E0
03E001C0
01E001C0
01F001C0
00F00380
00F80380
00F80300
00780700
007C0600
003C0E00
003E0C00
001E0C00
001E1C00
000F1800
000F3800
000FB000
0007B000
0007E000
0003E000
0003E000
0001C000
0001C000
00018000
00038000
00030000
00030000
00070000
18060000
3C0C0000
3F1C0000
3FF80000
1FF00000
07C00000
ENDCHAR

STARTCHAR tcommaaccent
ENCODING 254
SWIDTH 380 0
DWIDTH 19 0
BBX 20 45 0 -12
BITMAP
00C000
00C000
00C000
00C000
01C000
01C000
03C000
07C000
0FC000
3FFF80
3FFF80
03C000
03C000
03C000
03C000
03C000
03C000
03C000
03C000
03C000
03C000
03C000
03C000
03C000
03C000
03C000
03C000
03C000
03C000
03C000
03E040
01F1C0
01FFC0
007E00
000000
000000
007000
00F800
00F800
00F800
001800
001800
003000
006000
00C000
ENDCHAR

STARTCHAR dotaccent
ENCODING 255
SWIDTH 260 0
DWIDTH 13 0
BBX 9 6 3 28
BITMAP
3C00
7E00
7E00
7E00
7E00
3C00
ENDCHAR
ENDFONT
